Interstate_Pi-Three.ufo
<glyph name="quotesingle" format="1">
  <advance width="1000"/>
  <unicode hex="0027"/>
  <outline>
    <contour>
      <point x="988" y="500" type="curve" smooth="yes"/>
      <point x="988" y="489"/>
      <point x="983" y="479"/>
      <point x="972" y="468" type="curve" smooth="yes"/>
      <point x="532" y="29" type="line" smooth="yes"/>
      <point x="521" y="18"/>
      <point x="511" y="13"/>
      <point x="500" y="13" type="curve" smooth="yes"/>
      <point x="489" y="13"/>
      <point x="478" y="18"/>
      <point x="467" y="29" type="curve" smooth="yes"/>
      <point x="28" y="468" type="line" smooth="yes"/>
      <point x="17" y="479"/>
      <point x="12" y="489"/>
      <point x="12" y="500" type="curve" smooth="yes"/>
      <point x="12" y="511"/>
      <point x="17" y="522"/>
      <point x="28" y="533" type="curve" smooth="yes"/>
      <point x="467" y="972" type="line" smooth="yes"/>
      <point x="478" y="983"/>
      <point x="489" y="988"/>
      <point x="500" y="988" type="curve" smooth="yes"/>
      <point x="511" y="988"/>
      <point x="522" y="983"/>
      <point x="533" y="972" type="curve" smooth="yes"/>
      <point x="972" y="533" type="line" smooth="yes"/>
      <point x="983" y="522"/>
      <point x="988" y="511"/>
    </contour>
    <contour>
      <point x="985" y="500" type="curve" smooth="yes"/>
      <point x="985" y="510"/>
      <point x="980" y="521"/>
      <point x="970" y="531" type="curve" smooth="yes"/>
      <point x="531" y="970" type="line" smooth="yes"/>
      <point x="521" y="980"/>
      <point x="510" y="985"/>
      <point x="500" y="985" type="curve" smooth="yes"/>
      <point x="490" y="985"/>
      <point x="479" y="980"/>
      <point x="469" y="970" type="curve" smooth="yes"/>
      <point x="30" y="531" type="line" smooth="yes"/>
      <point x="20" y="521"/>
      <point x="15" y="510"/>
      <point x="15" y="500" type="curve" smooth="yes"/>
      <point x="15" y="490"/>
      <point x="20" y="480"/>
      <point x="30" y="470" type="curve" smooth="yes"/>
      <point x="469" y="31" type="line" smooth="yes"/>
      <point x="479" y="21"/>
      <point x="490" y="16"/>
      <point x="500" y="16" type="curve" smooth="yes"/>
      <point x="510" y="16"/>
      <point x="520" y="21"/>
      <point x="530" y="31" type="curve" smooth="yes"/>
      <point x="970" y="470" type="line" smooth="yes"/>
      <point x="980" y="480"/>
      <point x="985" y="490"/>
    </contour>
    <contour>
      <point x="973" y="500" type="curve" smooth="yes"/>
      <point x="973" y="492"/>
      <point x="970" y="485"/>
      <point x="962" y="477" type="curve" smooth="yes"/>
      <point x="523" y="38" type="line" smooth="yes"/>
      <point x="515" y="30"/>
      <point x="508" y="27"/>
      <point x="500" y="27" type="curve" smooth="yes"/>
      <point x="492" y="27"/>
      <point x="485" y="30"/>
      <point x="477" y="38" type="curve" smooth="yes"/>
      <point x="38" y="477" type="line" smooth="yes"/>
      <point x="30" y="485"/>
      <point x="27" y="492"/>
      <point x="27" y="500" type="curve" smooth="yes"/>
      <point x="27" y="508"/>
      <point x="30" y="515"/>
      <point x="38" y="523" type="curve" smooth="yes"/>
      <point x="477" y="962" type="line" smooth="yes"/>
      <point x="485" y="970"/>
      <point x="492" y="973"/>
      <point x="500" y="973" type="curve" smooth="yes"/>
      <point x="508" y="973"/>
      <point x="515" y="970"/>
      <point x="523" y="962" type="curve" smooth="yes"/>
      <point x="962" y="523" type="line" smooth="yes"/>
      <point x="970" y="515"/>
      <point x="973" y="508"/>
    </contour>
    <contour>
      <point x="956" y="500" type="curve" smooth="yes"/>
      <point x="956" y="504"/>
      <point x="954" y="507"/>
      <point x="950" y="511" type="curve" smooth="yes"/>
      <point x="511" y="950" type="line" smooth="yes"/>
      <point x="507" y="954"/>
      <point x="504" y="956"/>
      <point x="500" y="956" type="curve" smooth="yes"/>
      <point x="496" y="956"/>
      <point x="493" y="954"/>
      <point x="489" y="950" type="curve" smooth="yes"/>
      <point x="50" y="511" type="line" smooth="yes"/>
      <point x="46" y="507"/>
      <point x="44" y="504"/>
      <point x="44" y="500" type="curve" smooth="yes"/>
      <point x="44" y="496"/>
      <point x="46" y="493"/>
      <point x="50" y="489" type="curve" smooth="yes"/>
      <point x="489" y="50" type="line" smooth="yes"/>
      <point x="493" y="46"/>
      <point x="496" y="44"/>
      <point x="500" y="44" type="curve" smooth="yes"/>
      <point x="504" y="44"/>
      <point x="507" y="46"/>
      <point x="511" y="50" type="curve" smooth="yes"/>
      <point x="950" y="489" type="line" smooth="yes"/>
      <point x="954" y="493"/>
      <point x="956" y="496"/>
    </contour>
    <contour>
      <point x="646" y="600" type="line"/>
      <point x="631" y="600" type="line"/>
      <point x="585" y="685" type="line"/>
      <point x="585" y="600" type="line"/>
      <point x="568" y="600" type="line"/>
      <point x="568" y="719" type="line"/>
      <point x="585" y="719" type="line"/>
      <point x="629" y="637" type="line"/>
      <point x="629" y="719" type="line"/>
      <point x="646" y="719" type="line"/>
    </contour>
    <contour>
      <point x="539" y="600" type="line"/>
      <point x="470" y="600" type="line"/>
      <point x="470" y="719" type="line"/>
      <point x="536" y="719" type="line"/>
      <point x="536" y="702" type="line"/>
      <point x="487" y="702" type="line"/>
      <point x="487" y="672" type="line"/>
      <point x="517" y="672" type="line"/>
      <point x="517" y="655" type="line"/>
      <point x="487" y="655" type="line"/>
      <point x="487" y="617" type="line"/>
      <point x="539" y="617" type="line"/>
    </contour>
    <contour>
      <point x="444" y="600" type="line"/>
      <point x="427" y="600" type="line"/>
      <point x="427" y="682" type="line"/>
      <point x="397" y="598" type="line"/>
      <point x="367" y="682" type="line"/>
      <point x="367" y="600" type="line"/>
      <point x="350" y="600" type="line"/>
      <point x="350" y="719" type="line"/>
      <point x="369" y="719" type="line"/>
      <point x="397" y="640" type="line"/>
      <point x="426" y="719" type="line"/>
      <point x="444" y="719" type="line"/>
    </contour>
    <contour>
      <point x="822" y="431" type="line" smooth="yes"/>
      <point x="822" y="406"/>
      <point x="807" y="389"/>
      <point x="782" y="389" type="curve" smooth="yes"/>
      <point x="754" y="389"/>
      <point x="739" y="415"/>
      <point x="739" y="450" type="curve" smooth="yes"/>
      <point x="739" y="486"/>
      <point x="755" y="512"/>
      <point x="783" y="512" type="curve" smooth="yes"/>
      <point x="802" y="512"/>
      <point x="813" y="502"/>
      <point x="819" y="486" type="curve"/>
      <point x="803" y="479" type="line"/>
      <point x="798" y="490"/>
      <point x="793" y="494"/>
      <point x="782" y="494" type="curve" smooth="yes"/>
      <point x="765" y="494"/>
      <point x="757" y="476"/>
      <point x="757" y="450" type="curve" smooth="yes"/>
      <point x="757" y="427"/>
      <point x="765" y="406"/>
      <point x="783" y="406" type="curve" smooth="yes"/>
      <point x="798" y="406"/>
      <point x="804" y="416"/>
      <point x="804" y="430" type="curve" smooth="yes"/>
      <point x="804" y="435" type="line"/>
      <point x="788" y="435" type="line"/>
      <point x="788" y="452" type="line"/>
      <point x="822" y="452" type="line"/>
    </contour>
    <contour>
      <point x="719" y="391" type="line"/>
      <point x="704" y="391" type="line"/>
      <point x="658" y="476" type="line"/>
      <point x="658" y="391" type="line"/>
      <point x="641" y="391" type="line"/>
      <point x="641" y="510" type="line"/>
      <point x="658" y="510" type="line"/>
      <point x="702" y="428" type="line"/>
      <point x="702" y="510" type="line"/>
      <point x="719" y="510" type="line"/>
    </contour>
    <contour>
      <point x="621" y="391" type="line"/>
      <point x="603" y="391" type="line"/>
      <point x="603" y="509" type="line"/>
      <point x="621" y="509" type="line"/>
    </contour>
    <contour>
      <point x="584" y="391" type="line"/>
      <point x="565" y="391" type="line"/>
      <point x="536" y="451" type="line"/>
      <point x="521" y="430" type="line"/>
      <point x="521" y="391" type="line"/>
      <point x="504" y="391" type="line"/>
      <point x="504" y="510" type="line"/>
      <point x="521" y="510" type="line"/>
      <point x="521" y="455" type="line"/>
      <point x="559" y="510" type="line"/>
      <point x="579" y="510" type="line"/>
      <point x="549" y="468" type="line"/>
    </contour>
    <contour>
      <point x="484" y="475" type="curve" smooth="yes"/>
      <point x="484" y="457"/>
      <point x="475" y="446"/>
      <point x="462" y="442" type="curve"/>
      <point x="483" y="391" type="line"/>
      <point x="463" y="391" type="line"/>
      <point x="443" y="440" type="line"/>
      <point x="423" y="440" type="line"/>
      <point x="423" y="391" type="line"/>
      <point x="405" y="391" type="line"/>
      <point x="405" y="509" type="line"/>
      <point x="448" y="509" type="line" smooth="yes"/>
      <point x="467" y="509"/>
      <point x="484" y="499"/>
    </contour>
    <contour>
      <point x="384" y="450" type="curve" smooth="yes"/>
      <point x="384" y="415"/>
      <point x="369" y="389"/>
      <point x="341" y="389" type="curve" smooth="yes"/>
      <point x="313" y="389"/>
      <point x="298" y="415"/>
      <point x="298" y="450" type="curve" smooth="yes"/>
      <point x="298" y="485"/>
      <point x="313" y="511"/>
      <point x="341" y="511" type="curve" smooth="yes"/>
      <point x="369" y="511"/>
      <point x="384" y="485"/>
    </contour>
    <contour>
      <point x="284" y="510" type="line"/>
      <point x="261" y="391" type="line"/>
      <point x="246" y="391" type="line"/>
      <point x="228" y="475" type="line"/>
      <point x="210" y="391" type="line"/>
      <point x="195" y="391" type="line"/>
      <point x="172" y="510" type="line"/>
      <point x="189" y="510" type="line"/>
      <point x="204" y="424" type="line"/>
      <point x="221" y="510" type="line"/>
      <point x="235" y="510" type="line"/>
      <point x="252" y="424" type="line"/>
      <point x="267" y="510" type="line"/>
    </contour>
    <contour>
      <point x="466" y="475" type="curve" smooth="yes"/>
      <point x="466" y="487"/>
      <point x="459" y="493"/>
      <point x="448" y="493" type="curve" smooth="yes"/>
      <point x="423" y="493" type="line"/>
      <point x="423" y="456" type="line"/>
      <point x="448" y="456" type="line" smooth="yes"/>
      <point x="459" y="456"/>
      <point x="466" y="462"/>
    </contour>
    <contour>
      <point x="367" y="450" type="curve" smooth="yes"/>
      <point x="367" y="474"/>
      <point x="359" y="494"/>
      <point x="341" y="494" type="curve" smooth="yes"/>
      <point x="323" y="494"/>
      <point x="316" y="474"/>
      <point x="316" y="450" type="curve" smooth="yes"/>
      <point x="316" y="426"/>
      <point x="323" y="406"/>
      <point x="341" y="406" type="curve" smooth="yes"/>
      <point x="359" y="406"/>
      <point x="367" y="426"/>
    </contour>
  </outline>
</glyph>
<glyph name="plus" format="1">
  <advance width="1000"/>
  <unicode hex="002B"/>
  <outline>
    <contour>
      <point x="987" y="425" type="line" smooth="yes"/>
      <point x="987" y="396"/>
      <point x="969" y="378"/>
      <point x="939" y="378" type="curve" smooth="yes"/>
      <point x="61" y="378" type="line" smooth="yes"/>
      <point x="31" y="378"/>
      <point x="13" y="396"/>
      <point x="13" y="425" type="curve" smooth="yes"/>
      <point x="13" y="576" type="line" smooth="yes"/>
      <point x="13" y="605"/>
      <point x="31" y="623"/>
      <point x="61" y="623" type="curve" smooth="yes"/>
      <point x="939" y="623" type="line" smooth="yes"/>
      <point x="969" y="623"/>
      <point x="987" y="605"/>
      <point x="987" y="576" type="curve" smooth="yes"/>
    </contour>
    <contour>
      <point x="984" y="425" type="curve" smooth="yes"/>
      <point x="984" y="576" type="line" smooth="yes"/>
      <point x="984" y="603"/>
      <point x="967" y="620"/>
      <point x="939" y="620" type="curve" smooth="yes"/>
      <point x="61" y="620" type="line" smooth="yes"/>
      <point x="33" y="620"/>
      <point x="16" y="603"/>
      <point x="16" y="576" type="curve" smooth="yes"/>
      <point x="16" y="425" type="line" smooth="yes"/>
      <point x="16" y="398"/>
      <point x="33" y="381"/>
      <point x="61" y="381" type="curve" smooth="yes"/>
      <point x="939" y="381" type="line" smooth="yes"/>
      <point x="967" y="381"/>
      <point x="984" y="398"/>
    </contour>
    <contour>
      <point x="965" y="425" type="line" smooth="yes"/>
      <point x="965" y="409"/>
      <point x="956" y="400"/>
      <point x="939" y="400" type="curve" smooth="yes"/>
      <point x="61" y="400" type="line" smooth="yes"/>
      <point x="44" y="400"/>
      <point x="35" y="409"/>
      <point x="35" y="425" type="curve" smooth="yes"/>
      <point x="35" y="576" type="line" smooth="yes"/>
      <point x="35" y="592"/>
      <point x="44" y="601"/>
      <point x="61" y="601" type="curve" smooth="yes"/>
      <point x="939" y="601" type="line" smooth="yes"/>
      <point x="956" y="601"/>
      <point x="965" y="592"/>
      <point x="965" y="576" type="curve" smooth="yes"/>
    </contour>
    <contour>
      <point x="811" y="470" type="line"/>
      <point x="811" y="530" type="line"/>
      <point x="321" y="530" type="line"/>
      <point x="328" y="559" type="line" smooth="yes"/>
      <point x="332" y="575"/>
      <point x="322" y="582"/>
      <point x="311" y="575" type="curve" smooth="yes"/>
      <point x="192" y="500" type="line"/>
      <point x="311" y="425" type="line" smooth="yes"/>
      <point x="322" y="418"/>
      <point x="332" y="425"/>
      <point x="328" y="441" type="curve" smooth="yes"/>
      <point x="321" y="470" type="line"/>
    </contour>
  </outline>
</glyph>
<glyph name="comma" format="1">
  <advance width="1000"/>
  <unicode hex="002C"/>
  <outline>
    <contour>
      <point x="872" y="272" type="line" smooth="yes"/>
      <point x="872" y="242"/>
      <point x="853" y="222"/>
      <point x="821" y="222" type="curve" smooth="yes"/>
      <point x="160" y="222" type="line" smooth="yes"/>
      <point x="128" y="222"/>
      <point x="109" y="242"/>
      <point x="109" y="272" type="curve" smooth="yes"/>
      <point x="109" y="738" type="line" smooth="yes"/>
      <point x="109" y="768"/>
      <point x="128" y="788"/>
      <point x="160" y="788" type="curve" smooth="yes"/>
      <point x="821" y="788" type="line" smooth="yes"/>
      <point x="853" y="788"/>
      <point x="872" y="768"/>
      <point x="872" y="738" type="curve" smooth="yes"/>
    </contour>
  </outline>
</glyph>
<glyph name="hyphen" format="1">
  <advance width="1000"/>
  <unicode hex="002D"/>
  <unicode hex="2010"/>
  <unicode hex="2011"/>
  <outline>
    <contour>
      <point x="987" y="60" type="line" smooth="yes"/>
      <point x="987" y="31"/>
      <point x="969" y="13"/>
      <point x="939" y="13" type="curve" smooth="yes"/>
      <point x="61" y="13" type="line" smooth="yes"/>
      <point x="31" y="13"/>
      <point x="13" y="31"/>
      <point x="13" y="60" type="curve" smooth="yes"/>
      <point x="13" y="940" type="line" smooth="yes"/>
      <point x="13" y="969"/>
      <point x="31" y="987"/>
      <point x="61" y="987" type="curve" smooth="yes"/>
      <point x="939" y="987" type="line" smooth="yes"/>
      <point x="969" y="987"/>
      <point x="987" y="969"/>
      <point x="987" y="940" type="curve" smooth="yes"/>
    </contour>
    <contour>
      <point x="984" y="60" type="curve" smooth="yes"/>
      <point x="984" y="940" type="line" smooth="yes"/>
      <point x="984" y="967"/>
      <point x="967" y="984"/>
      <point x="939" y="984" type="curve" smooth="yes"/>
      <point x="61" y="984" type="line" smooth="yes"/>
      <point x="33" y="984"/>
      <point x="16" y="967"/>
      <point x="16" y="940" type="curve" smooth="yes"/>
      <point x="16" y="60" type="line" smooth="yes"/>
      <point x="16" y="33"/>
      <point x="33" y="16"/>
      <point x="61" y="16" type="curve" smooth="yes"/>
      <point x="939" y="16" type="line" smooth="yes"/>
      <point x="967" y="16"/>
      <point x="984" y="33"/>
    </contour>
    <contour>
      <point x="965" y="60" type="line" smooth="yes"/>
      <point x="965" y="44"/>
      <point x="955" y="35"/>
      <point x="939" y="35" type="curve" smooth="yes"/>
      <point x="61" y="35" type="line" smooth="yes"/>
      <point x="45" y="35"/>
      <point x="35" y="44"/>
      <point x="35" y="60" type="curve" smooth="yes"/>
      <point x="35" y="940" type="line" smooth="yes"/>
      <point x="35" y="956"/>
      <point x="45" y="965"/>
      <point x="61" y="965" type="curve" smooth="yes"/>
      <point x="939" y="965" type="line" smooth="yes"/>
      <point x="955" y="965"/>
      <point x="965" y="956"/>
      <point x="965" y="940" type="curve" smooth="yes"/>
    </contour>
    <contour>
      <point x="838" y="262" type="line"/>
      <point x="819" y="314" type="line"/>
      <point x="745" y="286" type="line"/>
      <point x="652" y="510" type="line"/>
      <point x="423" y="510" type="line"/>
      <point x="421" y="556" type="line"/>
      <point x="591" y="556" type="line"/>
      <point x="591" y="611" type="line"/>
      <point x="418" y="611" type="line"/>
      <point x="411" y="750" type="line"/>
      <point x="449" y="750"/>
      <point x="478" y="781"/>
      <point x="478" y="818" type="curve" smooth="yes"/>
      <point x="478" y="855"/>
      <point x="449" y="884"/>
      <point x="411" y="884" type="curve" smooth="yes"/>
      <point x="374" y="884"/>
      <point x="344" y="855"/>
      <point x="344" y="818" type="curve" smooth="yes"/>
      <point x="344" y="805"/>
      <point x="348" y="793"/>
      <point x="354" y="782" type="curve"/>
      <point x="372" y="456" type="line"/>
      <point x="617" y="456" type="line"/>
      <point x="714" y="217" type="line"/>
    </contour>
    <contour>
      <point x="639" y="289" type="curve"/>
      <point x="610" y="367" type="line"/>
      <point x="606" y="350"/>
      <point x="578" y="206"/>
      <point x="428" y="206" type="curve" smooth="yes"/>
      <point x="330" y="206"/>
      <point x="249" y="287"/>
      <point x="249" y="385" type="curve" smooth="yes"/>
      <point x="249" y="500"/>
      <point x="338" y="539"/>
      <point x="338" y="539" type="curve"/>
      <point x="335" y="596" type="line"/>
      <point x="335" y="596"/>
      <point x="194" y="544"/>
      <point x="194" y="385" type="curve" smooth="yes"/>
      <point x="194" y="257"/>
      <point x="298" y="151"/>
      <point x="428" y="151" type="curve" smooth="yes"/>
      <point x="586" y="151"/>
      <point x="634" y="279"/>
    </contour>
  </outline>
</glyph>
<glyph name="period" format="1">
  <advance width="1000"/>
  <unicode hex="002E"/>
  <outline>
    <contour>
      <point x="986" y="500" type="curve" smooth="yes"/>
      <point x="986" y="232"/>
      <point x="768" y="15"/>
      <point x="500" y="15" type="curve" smooth="yes"/>
      <point x="232" y="15"/>
      <point x="14" y="232"/>
      <point x="14" y="500" type="curve" smooth="yes"/>
      <point x="14" y="768"/>
      <point x="232" y="986"/>
      <point x="500" y="986" type="curve" smooth="yes"/>
      <point x="768" y="986"/>
      <point x="986" y="768"/>
    </contour>
  </outline>
</glyph>
<glyph name="slash" format="1">
  <advance width="1000"/>
  <unicode hex="002F"/>
  <outline>
    <contour>
      <point x="982" y="76" type="line" smooth="yes"/>
      <point x="982" y="55"/>
      <point x="977" y="39"/>
      <point x="967" y="29" type="curve"/>
      <point x="955" y="20"/>
      <point x="940" y="15"/>
      <point x="920" y="15" type="curve" smooth="yes"/>
      <point x="79" y="15" type="line" smooth="yes"/>
      <point x="58" y="15"/>
      <point x="42" y="20"/>
      <point x="32" y="30" type="curve" smooth="yes"/>
      <point x="22" y="40"/>
      <point x="17" y="56"/>
      <point x="17" y="76" type="curve" smooth="yes"/>
      <point x="17" y="460" type="line" smooth="yes"/>
      <point x="17" y="487"/>
      <point x="34" y="504"/>
      <point x="48" y="518" type="curve" smooth="yes"/>
      <point x="456" y="926" type="line" smooth="yes"/>
      <point x="487" y="957"/>
      <point x="514" y="955"/>
      <point x="543" y="926" type="curve" smooth="yes"/>
      <point x="951" y="518" type="line" smooth="yes"/>
      <point x="965" y="504"/>
      <point x="982" y="487"/>
      <point x="982" y="460" type="curve" smooth="yes"/>
    </contour>
  </outline>
</glyph>
<glyph name="zero" format="1">
  <advance width="1000"/>
  <unicode hex="0030"/>
  <outline>
    <contour>
      <point x="987" y="60" type="line" smooth="yes"/>
      <point x="987" y="31"/>
      <point x="969" y="13"/>
      <point x="939" y="13" type="curve" smooth="yes"/>
      <point x="61" y="13" type="line" smooth="yes"/>
      <point x="31" y="13"/>
      <point x="13" y="31"/>
      <point x="13" y="60" type="curve" smooth="yes"/>
      <point x="13" y="940" type="line" smooth="yes"/>
      <point x="13" y="969"/>
      <point x="31" y="987"/>
      <point x="61" y="987" type="curve" smooth="yes"/>
      <point x="939" y="987" type="line" smooth="yes"/>
      <point x="969" y="987"/>
      <point x="987" y="969"/>
      <point x="987" y="940" type="curve" smooth="yes"/>
    </contour>
    <contour>
      <point x="984" y="60" type="curve" smooth="yes"/>
      <point x="984" y="940" type="line" smooth="yes"/>
      <point x="984" y="967"/>
      <point x="967" y="984"/>
      <point x="939" y="984" type="curve" smooth="yes"/>
      <point x="61" y="984" type="line" smooth="yes"/>
      <point x="33" y="984"/>
      <point x="16" y="967"/>
      <point x="16" y="940" type="curve" smooth="yes"/>
      <point x="16" y="60" type="line" smooth="yes"/>
      <point x="16" y="33"/>
      <point x="33" y="16"/>
      <point x="61" y="16" type="curve" smooth="yes"/>
      <point x="939" y="16" type="line" smooth="yes"/>
      <point x="967" y="16"/>
      <point x="984" y="33"/>
    </contour>
    <contour>
      <point x="965" y="60" type="line" smooth="yes"/>
      <point x="965" y="44"/>
      <point x="955" y="35"/>
      <point x="939" y="35" type="curve" smooth="yes"/>
      <point x="61" y="35" type="line" smooth="yes"/>
      <point x="45" y="35"/>
      <point x="35" y="44"/>
      <point x="35" y="60" type="curve" smooth="yes"/>
      <point x="35" y="940" type="line" smooth="yes"/>
      <point x="35" y="956"/>
      <point x="45" y="965"/>
      <point x="61" y="965" type="curve" smooth="yes"/>
      <point x="939" y="965" type="line" smooth="yes"/>
      <point x="955" y="965"/>
      <point x="965" y="956"/>
      <point x="965" y="940" type="curve" smooth="yes"/>
    </contour>
    <contour>
      <point x="726" y="647" type="curve" smooth="yes"/>
      <point x="726" y="777"/>
      <point x="620" y="873"/>
      <point x="500" y="873" type="curve" smooth="yes"/>
      <point x="380" y="873"/>
      <point x="274" y="777"/>
      <point x="274" y="647" type="curve"/>
      <point x="394" y="647" type="line"/>
      <point x="394" y="707"/>
      <point x="440" y="753"/>
      <point x="500" y="753" type="curve" smooth="yes"/>
      <point x="560" y="753"/>
      <point x="606" y="707"/>
      <point x="606" y="647" type="curve" smooth="yes"/>
      <point x="606" y="600"/>
      <point x="577" y="573"/>
      <point x="564" y="562" type="curve" smooth="yes"/>
      <point x="491" y="503"/>
      <point x="443" y="410"/>
      <point x="443" y="305" type="curve"/>
      <point x="563" y="305" type="line"/>
      <point x="563" y="393"/>
      <point x="611" y="448"/>
      <point x="648" y="478" type="curve" smooth="yes"/>
      <point x="695" y="516"/>
      <point x="726" y="577"/>
    </contour>
    <contour>
      <point x="569" y="191" type="curve" smooth="yes"/>
      <point x="569" y="229"/>
      <point x="538" y="260"/>
      <point x="500" y="260" type="curve" smooth="yes"/>
      <point x="462" y="260"/>
      <point x="431" y="229"/>
      <point x="431" y="191" type="curve" smooth="yes"/>
      <point x="431" y="153"/>
      <point x="462" y="123"/>
      <point x="500" y="123" type="curve" smooth="yes"/>
      <point x="538" y="123"/>
      <point x="569" y="153"/>
    </contour>
  </outline>
</glyph>
<glyph name="one" format="1">
  <advance width="1000"/>
  <unicode hex="0031"/>
  <outline>
    <contour>
      <point x="987" y="60" type="line" smooth="yes"/>
      <point x="987" y="31"/>
      <point x="969" y="13"/>
      <point x="939" y="13" type="curve" smooth="yes"/>
      <point x="61" y="13" type="line" smooth="yes"/>
      <point x="31" y="13"/>
      <point x="13" y="31"/>
      <point x="13" y="60" type="curve" smooth="yes"/>
      <point x="13" y="940" type="line" smooth="yes"/>
      <point x="13" y="969"/>
      <point x="31" y="987"/>
      <point x="61" y="987" type="curve" smooth="yes"/>
      <point x="939" y="987" type="line" smooth="yes"/>
      <point x="969" y="987"/>
      <point x="987" y="969"/>
      <point x="987" y="940" type="curve" smooth="yes"/>
    </contour>
    <contour>
      <point x="984" y="60" type="curve" smooth="yes"/>
      <point x="984" y="940" type="line" smooth="yes"/>
      <point x="984" y="967"/>
      <point x="967" y="984"/>
      <point x="939" y="984" type="curve" smooth="yes"/>
      <point x="61" y="984" type="line" smooth="yes"/>
      <point x="33" y="984"/>
      <point x="16" y="967"/>
      <point x="16" y="940" type="curve" smooth="yes"/>
      <point x="16" y="60" type="line" smooth="yes"/>
      <point x="16" y="33"/>
      <point x="33" y="16"/>
      <point x="61" y="16" type="curve" smooth="yes"/>
      <point x="939" y="16" type="line" smooth="yes"/>
      <point x="967" y="16"/>
      <point x="984" y="33"/>
    </contour>
    <contour>
      <point x="965" y="60" type="line" smooth="yes"/>
      <point x="965" y="44"/>
      <point x="955" y="35"/>
      <point x="939" y="35" type="curve" smooth="yes"/>
      <point x="61" y="35" type="line" smooth="yes"/>
      <point x="45" y="35"/>
      <point x="35" y="44"/>
      <point x="35" y="60" type="curve" smooth="yes"/>
      <point x="35" y="940" type="line" smooth="yes"/>
      <point x="35" y="956"/>
      <point x="45" y="965"/>
      <point x="61" y="965" type="curve" smooth="yes"/>
      <point x="939" y="965" type="line" smooth="yes"/>
      <point x="955" y="965"/>
      <point x="965" y="956"/>
      <point x="965" y="940" type="curve" smooth="yes"/>
    </contour>
    <contour>
      <point x="886" y="500" type="curve" smooth="yes"/>
      <point x="886" y="712"/>
      <point x="714" y="884"/>
      <point x="502" y="884" type="curve" smooth="yes"/>
      <point x="290" y="884"/>
      <point x="118" y="712"/>
      <point x="118" y="500" type="curve" smooth="yes"/>
      <point x="118" y="287"/>
      <point x="290" y="115"/>
      <point x="502" y="115" type="curve" smooth="yes"/>
      <point x="714" y="115"/>
      <point x="886" y="287"/>
    </contour>
    <contour>
      <point x="595" y="168" type="curve" smooth="yes"/>
      <point x="595" y="155"/>
      <point x="582" y="151"/>
      <point x="574" y="151" type="curve" smooth="yes"/>
      <point x="566" y="151"/>
      <point x="554" y="155"/>
      <point x="554" y="168" type="curve" smooth="yes"/>
      <point x="554" y="301"/>
      <point x="554" y="382"/>
      <point x="554" y="519" type="curve" smooth="yes"/>
      <point x="554" y="558"/>
      <point x="521" y="560"/>
      <point x="521" y="590" type="curve" smooth="yes"/>
      <point x="521" y="590"/>
      <point x="521" y="765"/>
      <point x="521" y="788" type="curve" smooth="yes"/>
      <point x="521" y="811"/>
      <point x="540" y="830"/>
      <point x="563" y="830" type="curve" smooth="yes"/>
      <point x="585" y="830"/>
      <point x="595" y="830"/>
      <point x="595" y="830" type="curve"/>
      <point x="595" y="830"/>
      <point x="595" y="301"/>
    </contour>
    <contour>
      <point x="489" y="680" type="curve" smooth="yes"/>
      <point x="489" y="616"/>
      <point x="450" y="616"/>
      <point x="450" y="593" type="curve" smooth="yes"/>
      <point x="450" y="445"/>
      <point x="450" y="301"/>
      <point x="450" y="168" type="curve" smooth="yes"/>
      <point x="450" y="155"/>
      <point x="437" y="151"/>
      <point x="429" y="151" type="curve" smooth="yes"/>
      <point x="421" y="151"/>
      <point x="408" y="155"/>
      <point x="408" y="168" type="curve" smooth="yes"/>
      <point x="408" y="301"/>
      <point x="408" y="445"/>
      <point x="408" y="593" type="curve" smooth="yes"/>
      <point x="408" y="616"/>
      <point x="369" y="616"/>
      <point x="369" y="680" type="curve" smooth="yes"/>
      <point x="369" y="694"/>
      <point x="380" y="773"/>
      <point x="393" y="829" type="curve"/>
      <point x="398" y="829" type="line"/>
      <point x="398" y="677" type="line"/>
      <point x="407" y="677" type="line"/>
      <point x="417" y="829" type="line"/>
      <point x="421" y="829" type="line"/>
      <point x="425" y="677" type="line"/>
      <point x="433" y="677" type="line"/>
      <point x="437" y="829" type="line"/>
      <point x="441" y="829" type="line"/>
      <point x="451" y="677" type="line"/>
      <point x="460" y="677" type="line"/>
      <point x="460" y="829" type="line"/>
      <point x="465" y="829" type="line"/>
      <point x="477" y="773"/>
      <point x="489" y="694"/>
    </contour>
  </outline>
</glyph>
<glyph name="two" format="1">
  <advance width="1000"/>
  <unicode hex="0032"/>
  <outline>
    <contour>
      <point x="987" y="60" type="line" smooth="yes"/>
      <point x="987" y="31"/>
      <point x="969" y="13"/>
      <point x="939" y="13" type="curve" smooth="yes"/>
      <point x="61" y="13" type="line" smooth="yes"/>
      <point x="31" y="13"/>
      <point x="13" y="31"/>
      <point x="13" y="60" type="curve" smooth="yes"/>
      <point x="13" y="940" type="line" smooth="yes"/>
      <point x="13" y="969"/>
      <point x="31" y="987"/>
      <point x="61" y="987" type="curve" smooth="yes"/>
      <point x="939" y="987" type="line" smooth="yes"/>
      <point x="969" y="987"/>
      <point x="987" y="969"/>
      <point x="987" y="940" type="curve" smooth="yes"/>
    </contour>
    <contour>
      <point x="984" y="60" type="curve" smooth="yes"/>
      <point x="984" y="940" type="line" smooth="yes"/>
      <point x="984" y="967"/>
      <point x="967" y="984"/>
      <point x="939" y="984" type="curve" smooth="yes"/>
      <point x="61" y="984" type="line" smooth="yes"/>
      <point x="33" y="984"/>
      <point x="16" y="967"/>
      <point x="16" y="940" type="curve" smooth="yes"/>
      <point x="16" y="60" type="line" smooth="yes"/>
      <point x="16" y="33"/>
      <point x="33" y="16"/>
      <point x="61" y="16" type="curve" smooth="yes"/>
      <point x="939" y="16" type="line" smooth="yes"/>
      <point x="967" y="16"/>
      <point x="984" y="33"/>
    </contour>
    <contour>
      <point x="965" y="60" type="line" smooth="yes"/>
      <point x="965" y="44"/>
      <point x="955" y="35"/>
      <point x="939" y="35" type="curve" smooth="yes"/>
      <point x="61" y="35" type="line" smooth="yes"/>
      <point x="45" y="35"/>
      <point x="35" y="44"/>
      <point x="35" y="60" type="curve" smooth="yes"/>
      <point x="35" y="940" type="line" smooth="yes"/>
      <point x="35" y="956"/>
      <point x="45" y="965"/>
      <point x="61" y="965" type="curve" smooth="yes"/>
      <point x="939" y="965" type="line" smooth="yes"/>
      <point x="955" y="965"/>
      <point x="965" y="956"/>
      <point x="965" y="940" type="curve" smooth="yes"/>
    </contour>
    <contour>
      <point x="799" y="123" type="line"/>
      <point x="799" y="177" type="line"/>
      <point x="650" y="177" type="line"/>
      <point x="650" y="551" type="line"/>
      <point x="663" y="551"/>
      <point x="662" y="545"/>
      <point x="662" y="541" type="curve" smooth="yes"/>
      <point x="662" y="250" type="line" smooth="yes"/>
      <point x="662" y="212"/>
      <point x="690" y="186"/>
      <point x="723" y="186" type="curve" smooth="yes"/>
      <point x="757" y="186"/>
      <point x="783" y="213"/>
      <point x="783" y="249" type="curve" smooth="yes"/>
      <point x="783" y="285"/>
      <point x="735" y="389"/>
      <point x="735" y="423" type="curve" smooth="yes"/>
      <point x="735" y="701" type="line" smooth="yes"/>
      <point x="735" y="722"/>
      <point x="727" y="740"/>
      <point x="716" y="749" type="curve" smooth="yes"/>
      <point x="650" y="803" type="line"/>
      <point x="650" y="846" type="line" smooth="yes"/>
      <point x="650" y="863"/>
      <point x="636" y="877"/>
      <point x="619" y="877" type="curve" smooth="yes"/>
      <point x="381" y="877" type="line" smooth="yes"/>
      <point x="364" y="877"/>
      <point x="350" y="863"/>
      <point x="350" y="846" type="curve" smooth="yes"/>
      <point x="350" y="177" type="line"/>
      <point x="201" y="177" type="line"/>
      <point x="201" y="123" type="line"/>
    </contour>
    <contour>
      <point x="606" y="683" type="line" smooth="yes"/>
      <point x="606" y="674"/>
      <point x="598" y="667"/>
      <point x="590" y="667" type="curve" smooth="yes"/>
      <point x="410" y="667" type="line" smooth="yes"/>
      <point x="402" y="667"/>
      <point x="394" y="674"/>
      <point x="394" y="683" type="curve" smooth="yes"/>
      <point x="394" y="821" type="line" smooth="yes"/>
      <point x="394" y="830"/>
      <point x="402" y="837"/>
      <point x="410" y="837" type="curve" smooth="yes"/>
      <point x="590" y="837" type="line" smooth="yes"/>
      <point x="598" y="837"/>
      <point x="606" y="830"/>
      <point x="606" y="821" type="curve" smooth="yes"/>
    </contour>
    <contour>
      <point x="754" y="249" type="curve" smooth="yes"/>
      <point x="754" y="230"/>
      <point x="742" y="215"/>
      <point x="723" y="215" type="curve" smooth="yes"/>
      <point x="704" y="215"/>
      <point x="692" y="229"/>
      <point x="692" y="250" type="curve" smooth="yes"/>
      <point x="692" y="571" type="line" smooth="yes"/>
      <point x="692" y="582"/>
      <point x="679" y="587"/>
      <point x="667" y="587" type="curve" smooth="yes"/>
      <point x="650" y="587" type="line"/>
      <point x="650" y="762" type="line"/>
      <point x="658" y="756"/>
      <point x="664" y="749"/>
      <point x="664" y="741" type="curve" smooth="yes"/>
      <point x="664" y="683" type="line"/>
      <point x="704" y="683" type="line"/>
      <point x="704" y="433" type="line" smooth="yes"/>
      <point x="704" y="370"/>
      <point x="754" y="285"/>
    </contour>
  </outline>
</glyph>
<glyph name="three" format="1">
  <advance width="1000"/>
  <unicode hex="0033"/>
  <outline>
    <contour>
      <point x="987" y="60" type="line" smooth="yes"/>
      <point x="987" y="31"/>
      <point x="969" y="13"/>
      <point x="939" y="13" type="curve" smooth="yes"/>
      <point x="61" y="13" type="line" smooth="yes"/>
      <point x="31" y="13"/>
      <point x="13" y="31"/>
      <point x="13" y="60" type="curve" smooth="yes"/>
      <point x="13" y="940" type="line" smooth="yes"/>
      <point x="13" y="969"/>
      <point x="31" y="987"/>
      <point x="61" y="987" type="curve" smooth="yes"/>
      <point x="939" y="987" type="line" smooth="yes"/>
      <point x="969" y="987"/>
      <point x="987" y="969"/>
      <point x="987" y="940" type="curve" smooth="yes"/>
    </contour>
    <contour>
      <point x="984" y="60" type="curve" smooth="yes"/>
      <point x="984" y="940" type="line" smooth="yes"/>
      <point x="984" y="967"/>
      <point x="967" y="984"/>
      <point x="939" y="984" type="curve" smooth="yes"/>
      <point x="61" y="984" type="line" smooth="yes"/>
      <point x="33" y="984"/>
      <point x="16" y="967"/>
      <point x="16" y="940" type="curve" smooth="yes"/>
      <point x="16" y="60" type="line" smooth="yes"/>
      <point x="16" y="33"/>
      <point x="33" y="16"/>
      <point x="61" y="16" type="curve" smooth="yes"/>
      <point x="939" y="16" type="line" smooth="yes"/>
      <point x="967" y="16"/>
      <point x="984" y="33"/>
    </contour>
    <contour>
      <point x="965" y="60" type="line" smooth="yes"/>
      <point x="965" y="44"/>
      <point x="955" y="35"/>
      <point x="939" y="35" type="curve" smooth="yes"/>
      <point x="61" y="35" type="line" smooth="yes"/>
      <point x="45" y="35"/>
      <point x="35" y="44"/>
      <point x="35" y="60" type="curve" smooth="yes"/>
      <point x="35" y="940" type="line" smooth="yes"/>
      <point x="35" y="956"/>
      <point x="45" y="965"/>
      <point x="61" y="965" type="curve" smooth="yes"/>
      <point x="939" y="965" type="line" smooth="yes"/>
      <point x="955" y="965"/>
      <point x="965" y="956"/>
      <point x="965" y="940" type="curve" smooth="yes"/>
    </contour>
    <contour>
      <point x="656" y="884" type="line"/>
      <point x="657" y="894"/>
      <point x="652" y="909"/>
      <point x="640" y="913" type="curve"/>
      <point x="606" y="920" type="line"/>
      <point x="561" y="678" type="line"/>
      <point x="596" y="673" type="line" smooth="yes"/>
      <point x="609" y="671"/>
      <point x="617" y="683"/>
      <point x="619" y="692" type="curve" smooth="yes"/>
    </contour>
    <contour>
      <point x="578" y="79" type="curve"/>
      <point x="532" y="317" type="line"/>
      <point x="517" y="314"/>
      <point x="509" y="310"/>
      <point x="492" y="310" type="curve" smooth="yes"/>
      <point x="473" y="310"/>
      <point x="461" y="323"/>
      <point x="461" y="343" type="curve" smooth="yes"/>
      <point x="461" y="657" type="line" smooth="yes"/>
      <point x="461" y="677"/>
      <point x="472" y="690"/>
      <point x="492" y="690" type="curve" smooth="yes"/>
      <point x="509" y="690"/>
      <point x="517" y="686"/>
      <point x="532" y="683" type="curve"/>
      <point x="578" y="921" type="line"/>
      <point x="559" y="924"/>
      <point x="524" y="923"/>
      <point x="490" y="917" type="curve" smooth="yes"/>
      <point x="458" y="911"/>
      <point x="426" y="901"/>
      <point x="408" y="889" type="curve"/>
      <point x="365" y="813"/>
      <point x="333" y="659"/>
      <point x="333" y="500" type="curve" smooth="yes"/>
      <point x="333" y="347"/>
      <point x="365" y="187"/>
      <point x="408" y="111" type="curve"/>
      <point x="426" y="99"/>
      <point x="458" y="89"/>
      <point x="490" y="83" type="curve" smooth="yes"/>
      <point x="524" y="77"/>
      <point x="559" y="76"/>
    </contour>
    <contour>
      <point x="656" y="116" type="curve"/>
      <point x="619" y="309" type="line" smooth="yes"/>
      <point x="617" y="318"/>
      <point x="609" y="330"/>
      <point x="596" y="328" type="curve" smooth="yes"/>
      <point x="561" y="323" type="line"/>
      <point x="606" y="80" type="line"/>
      <point x="640" y="87" type="line"/>
      <point x="652" y="91"/>
      <point x="657" y="106"/>
    </contour>
  </outline>
</glyph>
<glyph name="four" format="1">
  <advance width="1000"/>
  <unicode hex="0034"/>
  <outline>
    <contour>
      <point x="987" y="60" type="line" smooth="yes"/>
      <point x="987" y="31"/>
      <point x="969" y="13"/>
      <point x="939" y="13" type="curve" smooth="yes"/>
      <point x="61" y="13" type="line" smooth="yes"/>
      <point x="31" y="13"/>
      <point x="13" y="31"/>
      <point x="13" y="60" type="curve" smooth="yes"/>
      <point x="13" y="940" type="line" smooth="yes"/>
      <point x="13" y="969"/>
      <point x="31" y="987"/>
      <point x="61" y="987" type="curve" smooth="yes"/>
      <point x="939" y="987" type="line" smooth="yes"/>
      <point x="969" y="987"/>
      <point x="987" y="969"/>
      <point x="987" y="940" type="curve" smooth="yes"/>
    </contour>
    <contour>
      <point x="984" y="60" type="curve" smooth="yes"/>
      <point x="984" y="940" type="line" smooth="yes"/>
      <point x="984" y="967"/>
      <point x="967" y="984"/>
      <point x="939" y="984" type="curve" smooth="yes"/>
      <point x="61" y="984" type="line" smooth="yes"/>
      <point x="33" y="984"/>
      <point x="16" y="967"/>
      <point x="16" y="940" type="curve" smooth="yes"/>
      <point x="16" y="60" type="line" smooth="yes"/>
      <point x="16" y="33"/>
      <point x="33" y="16"/>
      <point x="61" y="16" type="curve" smooth="yes"/>
      <point x="939" y="16" type="line" smooth="yes"/>
      <point x="967" y="16"/>
      <point x="984" y="33"/>
    </contour>
    <contour>
      <point x="965" y="60" type="line" smooth="yes"/>
      <point x="965" y="44"/>
      <point x="955" y="35"/>
      <point x="939" y="35" type="curve" smooth="yes"/>
      <point x="61" y="35" type="line" smooth="yes"/>
      <point x="45" y="35"/>
      <point x="35" y="44"/>
      <point x="35" y="60" type="curve" smooth="yes"/>
      <point x="35" y="940" type="line" smooth="yes"/>
      <point x="35" y="956"/>
      <point x="45" y="965"/>
      <point x="61" y="965" type="curve" smooth="yes"/>
      <point x="939" y="965" type="line" smooth="yes"/>
      <point x="955" y="965"/>
      <point x="965" y="956"/>
      <point x="965" y="940" type="curve" smooth="yes"/>
    </contour>
    <contour>
      <point x="318" y="549" type="curve" smooth="yes"/>
      <point x="318" y="576"/>
      <point x="296" y="598"/>
      <point x="268" y="598" type="curve" smooth="yes"/>
      <point x="241" y="598"/>
      <point x="219" y="576"/>
      <point x="219" y="549" type="curve" smooth="yes"/>
      <point x="219" y="521"/>
      <point x="241" y="500"/>
      <point x="268" y="500" type="curve" smooth="yes"/>
      <point x="296" y="500"/>
      <point x="318" y="521"/>
    </contour>
    <contour>
      <point x="774" y="500" type="line"/>
      <point x="774" y="554"/>
      <point x="708" y="587"/>
      <point x="620" y="587" type="curve" smooth="yes"/>
      <point x="499" y="587" type="line" smooth="yes"/>
      <point x="411" y="587"/>
      <point x="345" y="554"/>
      <point x="345" y="500" type="curve"/>
    </contour>
    <contour>
      <point x="862" y="324" type="line"/>
      <point x="862" y="675" type="line"/>
      <point x="796" y="675" type="line"/>
      <point x="796" y="478" type="line"/>
      <point x="202" y="478" type="line"/>
      <point x="202" y="675" type="line"/>
      <point x="136" y="675" type="line"/>
      <point x="136" y="324" type="line"/>
      <point x="202" y="324" type="line"/>
      <point x="202" y="390" type="line"/>
      <point x="796" y="390" type="line"/>
      <point x="796" y="324" type="line"/>
    </contour>
  </outline>
</glyph>
<glyph name="five" format="1">
  <advance width="1000"/>
  <unicode hex="0035"/>
  <outline>
    <contour>
      <point x="987" y="60" type="line" smooth="yes"/>
      <point x="987" y="31"/>
      <point x="969" y="13"/>
      <point x="939" y="13" type="curve" smooth="yes"/>
      <point x="61" y="13" type="line" smooth="yes"/>
      <point x="31" y="13"/>
      <point x="13" y="31"/>
      <point x="13" y="60" type="curve" smooth="yes"/>
      <point x="13" y="940" type="line" smooth="yes"/>
      <point x="13" y="969"/>
      <point x="31" y="987"/>
      <point x="61" y="987" type="curve" smooth="yes"/>
      <point x="939" y="987" type="line" smooth="yes"/>
      <point x="969" y="987"/>
      <point x="987" y="969"/>
      <point x="987" y="940" type="curve" smooth="yes"/>
    </contour>
    <contour>
      <point x="984" y="60" type="curve" smooth="yes"/>
      <point x="984" y="940" type="line" smooth="yes"/>
      <point x="984" y="967"/>
      <point x="967" y="984"/>
      <point x="939" y="984" type="curve" smooth="yes"/>
      <point x="61" y="984" type="line" smooth="yes"/>
      <point x="33" y="984"/>
      <point x="16" y="967"/>
      <point x="16" y="940" type="curve" smooth="yes"/>
      <point x="16" y="60" type="line" smooth="yes"/>
      <point x="16" y="33"/>
      <point x="33" y="16"/>
      <point x="61" y="16" type="curve" smooth="yes"/>
      <point x="939" y="16" type="line" smooth="yes"/>
      <point x="967" y="16"/>
      <point x="984" y="33"/>
    </contour>
    <contour>
      <point x="965" y="60" type="line" smooth="yes"/>
      <point x="965" y="44"/>
      <point x="955" y="35"/>
      <point x="939" y="35" type="curve" smooth="yes"/>
      <point x="61" y="35" type="line" smooth="yes"/>
      <point x="45" y="35"/>
      <point x="35" y="44"/>
      <point x="35" y="60" type="curve" smooth="yes"/>
      <point x="35" y="940" type="line" smooth="yes"/>
      <point x="35" y="956"/>
      <point x="45" y="965"/>
      <point x="61" y="965" type="curve" smooth="yes"/>
      <point x="939" y="965" type="line" smooth="yes"/>
      <point x="955" y="965"/>
      <point x="965" y="956"/>
      <point x="965" y="940" type="curve" smooth="yes"/>
    </contour>
    <contour>
      <point x="868" y="206" type="line"/>
      <point x="868" y="276" type="line"/>
      <point x="855" y="298" type="line"/>
      <point x="867" y="440" type="line"/>
      <point x="823" y="764" type="line"/>
      <point x="823" y="771"/>
      <point x="803" y="863"/>
      <point x="724" y="863" type="curve" smooth="yes"/>
      <point x="276" y="863" type="line" smooth="yes"/>
      <point x="197" y="863"/>
      <point x="178" y="771"/>
      <point x="177" y="764" type="curve" smooth="yes"/>
      <point x="133" y="440" type="line"/>
      <point x="145" y="298" type="line"/>
      <point x="132" y="276" type="line"/>
      <point x="132" y="206" type="line"/>
      <point x="193" y="206" type="line"/>
      <point x="193" y="133" type="line"/>
      <point x="315" y="133" type="line"/>
      <point x="315" y="206" type="line"/>
      <point x="685" y="206" type="line"/>
      <point x="685" y="133" type="line"/>
      <point x="807" y="133" type="line"/>
      <point x="807" y="206" type="line"/>
    </contour>
    <contour>
      <point x="685" y="758" type="line"/>
      <point x="315" y="758" type="line"/>
      <point x="315" y="847" type="line"/>
      <point x="685" y="847" type="line"/>
    </contour>
    <contour>
      <point x="829" y="500" type="line"/>
      <point x="524" y="500" type="line"/>
      <point x="524" y="743" type="line"/>
      <point x="801" y="726" type="line"/>
    </contour>
    <contour>
      <point x="476" y="500" type="line"/>
      <point x="171" y="500" type="line"/>
      <point x="199" y="726" type="line"/>
      <point x="476" y="743" type="line"/>
    </contour>
    <contour>
      <point x="807" y="365" type="curve" smooth="yes"/>
      <point x="807" y="348"/>
      <point x="792" y="334"/>
      <point x="775" y="334" type="curve" smooth="yes"/>
      <point x="762" y="334"/>
      <point x="750" y="343"/>
      <point x="745" y="354" type="curve"/>
      <point x="740" y="342"/>
      <point x="728" y="334"/>
      <point x="715" y="334" type="curve" smooth="yes"/>
      <point x="698" y="334"/>
      <point x="683" y="348"/>
      <point x="683" y="365" type="curve" smooth="yes"/>
      <point x="683" y="383"/>
      <point x="697" y="397"/>
      <point x="715" y="397" type="curve" smooth="yes"/>
      <point x="729" y="397"/>
      <point x="741" y="388"/>
      <point x="745" y="376" type="curve"/>
      <point x="750" y="388"/>
      <point x="762" y="397"/>
      <point x="775" y="397" type="curve" smooth="yes"/>
      <point x="792" y="397"/>
      <point x="807" y="382"/>
    </contour>
    <contour>
      <point x="317" y="365" type="curve" smooth="yes"/>
      <point x="317" y="348"/>
      <point x="302" y="334"/>
      <point x="285" y="334" type="curve" smooth="yes"/>
      <point x="272" y="334"/>
      <point x="260" y="342"/>
      <point x="255" y="354" type="curve"/>
      <point x="250" y="343"/>
      <point x="238" y="334"/>
      <point x="225" y="334" type="curve" smooth="yes"/>
      <point x="208" y="334"/>
      <point x="193" y="348"/>
      <point x="193" y="365" type="curve" smooth="yes"/>
      <point x="193" y="382"/>
      <point x="208" y="397"/>
      <point x="225" y="397" type="curve" smooth="yes"/>
      <point x="238" y="397"/>
      <point x="250" y="388"/>
      <point x="255" y="376" type="curve"/>
      <point x="259" y="388"/>
      <point x="271" y="397"/>
      <point x="285" y="397" type="curve" smooth="yes"/>
      <point x="303" y="397"/>
      <point x="317" y="383"/>
    </contour>
    <contour>
      <point x="807" y="267" type="line"/>
      <point x="193" y="267" type="line"/>
      <point x="193" y="283" type="line"/>
      <point x="807" y="283" type="line"/>
    </contour>
  </outline>
</glyph>
<glyph name="six" format="1">
  <advance width="1000"/>
  <unicode hex="0036"/>
  <outline>
    <contour>
      <point x="987" y="60" type="line" smooth="yes"/>
      <point x="987" y="31"/>
      <point x="969" y="13"/>
      <point x="939" y="13" type="curve" smooth="yes"/>
      <point x="61" y="13" type="line" smooth="yes"/>
      <point x="31" y="13"/>
      <point x="13" y="31"/>
      <point x="13" y="60" type="curve" smooth="yes"/>
      <point x="13" y="940" type="line" smooth="yes"/>
      <point x="13" y="969"/>
      <point x="31" y="987"/>
      <point x="61" y="987" type="curve" smooth="yes"/>
      <point x="939" y="987" type="line" smooth="yes"/>
      <point x="969" y="987"/>
      <point x="987" y="969"/>
      <point x="987" y="940" type="curve" smooth="yes"/>
    </contour>
    <contour>
      <point x="984" y="60" type="curve" smooth="yes"/>
      <point x="984" y="940" type="line" smooth="yes"/>
      <point x="984" y="967"/>
      <point x="967" y="984"/>
      <point x="939" y="984" type="curve" smooth="yes"/>
      <point x="61" y="984" type="line" smooth="yes"/>
      <point x="33" y="984"/>
      <point x="16" y="967"/>
      <point x="16" y="940" type="curve" smooth="yes"/>
      <point x="16" y="60" type="line" smooth="yes"/>
      <point x="16" y="33"/>
      <point x="33" y="16"/>
      <point x="61" y="16" type="curve" smooth="yes"/>
      <point x="939" y="16" type="line" smooth="yes"/>
      <point x="967" y="16"/>
      <point x="984" y="33"/>
    </contour>
    <contour>
      <point x="965" y="60" type="line" smooth="yes"/>
      <point x="965" y="44"/>
      <point x="955" y="35"/>
      <point x="939" y="35" type="curve" smooth="yes"/>
      <point x="61" y="35" type="line" smooth="yes"/>
      <point x="45" y="35"/>
      <point x="35" y="44"/>
      <point x="35" y="60" type="curve" smooth="yes"/>
      <point x="35" y="940" type="line" smooth="yes"/>
      <point x="35" y="956"/>
      <point x="45" y="965"/>
      <point x="61" y="965" type="curve" smooth="yes"/>
      <point x="939" y="965" type="line" smooth="yes"/>
      <point x="955" y="965"/>
      <point x="965" y="956"/>
      <point x="965" y="940" type="curve" smooth="yes"/>
    </contour>
    <contour>
      <point x="343" y="773" type="curve" smooth="yes"/>
      <point x="343" y="779"/>
      <point x="339" y="783"/>
      <point x="333" y="783" type="curve" smooth="yes"/>
      <point x="327" y="783"/>
      <point x="323" y="779"/>
      <point x="323" y="773" type="curve" smooth="yes"/>
      <point x="323" y="767"/>
      <point x="327" y="763"/>
      <point x="333" y="763" type="curve" smooth="yes"/>
      <point x="339" y="763"/>
      <point x="343" y="767"/>
    </contour>
    <contour>
      <point x="313" y="773" type="curve" smooth="yes"/>
      <point x="313" y="779"/>
      <point x="309" y="783"/>
      <point x="303" y="783" type="curve" smooth="yes"/>
      <point x="297" y="783"/>
      <point x="293" y="779"/>
      <point x="293" y="773" type="curve" smooth="yes"/>
      <point x="293" y="767"/>
      <point x="297" y="763"/>
      <point x="303" y="763" type="curve" smooth="yes"/>
      <point x="309" y="763"/>
      <point x="313" y="767"/>
    </contour>
    <contour>
      <point x="644" y="559" type="curve" smooth="yes"/>
      <point x="644" y="566"/>
      <point x="638" y="573"/>
      <point x="631" y="573" type="curve" smooth="yes"/>
      <point x="624" y="573"/>
      <point x="618" y="566"/>
      <point x="618" y="559" type="curve" smooth="yes"/>
      <point x="618" y="552"/>
      <point x="624" y="546"/>
      <point x="631" y="546" type="curve" smooth="yes"/>
      <point x="638" y="546"/>
      <point x="644" y="552"/>
    </contour>
    <contour>
      <point x="876" y="242" type="line"/>
      <point x="876" y="869" type="line"/>
      <point x="558" y="679" type="line"/>
      <point x="558" y="652" type="line"/>
      <point x="719" y="652" type="line"/>
      <point x="719" y="371" type="line"/>
      <point x="644" y="371" type="line"/>
      <point x="645" y="388"/>
      <point x="645" y="424"/>
      <point x="646" y="449" type="curve"/>
      <point x="654" y="456" type="line"/>
      <point x="654" y="456"/>
      <point x="654" y="496"/>
      <point x="654" y="517" type="curve" smooth="yes"/>
      <point x="654" y="528"/>
      <point x="643" y="540"/>
      <point x="631" y="540" type="curve" smooth="yes"/>
      <point x="619" y="540"/>
      <point x="608" y="528"/>
      <point x="608" y="517" type="curve" smooth="yes"/>
      <point x="608" y="496"/>
      <point x="608" y="456"/>
      <point x="608" y="456" type="curve"/>
      <point x="616" y="449" type="line"/>
      <point x="617" y="424"/>
      <point x="617" y="388"/>
      <point x="618" y="371" type="curve"/>
      <point x="494" y="371" type="line"/>
      <point x="494" y="346" type="line"/>
      <point x="602" y="346" type="line"/>
      <point x="602" y="242" type="line"/>
    </contour>
    <contour>
      <point x="521" y="159" type="line"/>
      <point x="501" y="186" type="line"/>
      <point x="469" y="186" type="line"/>
      <point x="451" y="217" type="line"/>
      <point x="479" y="217" type="line"/>
      <point x="460" y="241" type="line"/>
      <point x="437" y="241" type="line"/>
      <point x="416" y="277" type="line"/>
      <point x="432" y="277" type="line"/>
      <point x="416" y="299" type="line"/>
      <point x="403" y="299" type="line"/>
      <point x="403" y="328" type="line"/>
      <point x="457" y="380" type="line"/>
      <point x="457" y="380"/>
      <point x="468" y="388"/>
      <point x="468" y="406" type="curve" smooth="yes"/>
      <point x="468" y="406"/>
      <point x="468" y="625"/>
      <point x="468" y="641" type="curve" smooth="yes"/>
      <point x="467" y="665"/>
      <point x="445" y="671"/>
      <point x="445" y="677" type="curve"/>
      <point x="433" y="721" type="line" smooth="yes"/>
      <point x="432" y="726"/>
      <point x="427" y="735"/>
      <point x="416" y="740" type="curve" smooth="yes"/>
      <point x="403" y="746"/>
      <point x="359" y="757"/>
      <point x="318" y="757" type="curve" smooth="yes"/>
      <point x="277" y="757"/>
      <point x="233" y="746"/>
      <point x="220" y="740" type="curve" smooth="yes"/>
      <point x="209" y="735"/>
      <point x="204" y="726"/>
      <point x="203" y="721" type="curve" smooth="yes"/>
      <point x="191" y="677" type="line"/>
      <point x="191" y="671"/>
      <point x="169" y="665"/>
      <point x="168" y="641" type="curve" smooth="yes"/>
      <point x="168" y="625"/>
      <point x="168" y="406"/>
      <point x="168" y="406" type="curve" smooth="yes"/>
      <point x="168" y="388"/>
      <point x="179" y="380"/>
      <point x="179" y="380" type="curve"/>
      <point x="233" y="328" type="line"/>
      <point x="233" y="299" type="line"/>
      <point x="220" y="299" type="line"/>
      <point x="204" y="277" type="line"/>
      <point x="220" y="277" type="line"/>
      <point x="199" y="241" type="line"/>
      <point x="176" y="241" type="line"/>
      <point x="157" y="217" type="line"/>
      <point x="185" y="217" type="line"/>
      <point x="167" y="186" type="line"/>
      <point x="135" y="186" type="line"/>
      <point x="115" y="159" type="line"/>
      <point x="151" y="159" type="line"/>
      <point x="139" y="140" type="line"/>
      <point x="158" y="140" type="line"/>
      <point x="170" y="159" type="line"/>
      <point x="466" y="159" type="line"/>
      <point x="478" y="140" type="line"/>
      <point x="497" y="140" type="line"/>
      <point x="485" y="159" type="line"/>
    </contour>
    <contour>
      <point x="428" y="692" type="line" smooth="yes"/>
      <point x="429" y="689"/>
      <point x="423" y="687"/>
      <point x="420" y="689" type="curve" smooth="yes"/>
      <point x="398" y="703"/>
      <point x="341" y="714"/>
      <point x="322" y="715" type="curve"/>
      <point x="322" y="744" type="line"/>
      <point x="323" y="748"/>
      <point x="326" y="749"/>
      <point x="328" y="749" type="curve"/>
      <point x="346" y="751"/>
      <point x="401" y="738"/>
      <point x="410" y="733" type="curve" smooth="yes"/>
      <point x="414" y="731"/>
      <point x="415" y="731"/>
      <point x="417" y="727" type="curve"/>
    </contour>
    <contour>
      <point x="314" y="715" type="line"/>
      <point x="295" y="714"/>
      <point x="238" y="703"/>
      <point x="216" y="689" type="curve" smooth="yes"/>
      <point x="213" y="687"/>
      <point x="207" y="689"/>
      <point x="208" y="692" type="curve" smooth="yes"/>
      <point x="219" y="727" type="line"/>
      <point x="221" y="731"/>
      <point x="222" y="731"/>
      <point x="226" y="733" type="curve" smooth="yes"/>
      <point x="235" y="738"/>
      <point x="290" y="751"/>
      <point x="308" y="749" type="curve"/>
      <point x="310" y="749"/>
      <point x="313" y="748"/>
      <point x="314" y="744" type="curve"/>
    </contour>
    <contour>
      <point x="341" y="669" type="curve" smooth="yes"/>
      <point x="341" y="657"/>
      <point x="330" y="647"/>
      <point x="318" y="647" type="curve" smooth="yes"/>
      <point x="306" y="647"/>
      <point x="295" y="657"/>
      <point x="295" y="669" type="curve" smooth="yes"/>
      <point x="295" y="681"/>
      <point x="306" y="692"/>
      <point x="318" y="692" type="curve" smooth="yes"/>
      <point x="330" y="692"/>
      <point x="341" y="681"/>
    </contour>
    <contour>
      <point x="451" y="583" type="curve" smooth="yes"/>
      <point x="451" y="576"/>
      <point x="445" y="571"/>
      <point x="438" y="571" type="curve" smooth="yes"/>
      <point x="431" y="571"/>
      <point x="425" y="576"/>
      <point x="425" y="583" type="curve" smooth="yes"/>
      <point x="425" y="590"/>
      <point x="431" y="596"/>
      <point x="438" y="596" type="curve" smooth="yes"/>
      <point x="445" y="596"/>
      <point x="451" y="590"/>
    </contour>
    <contour>
      <point x="211" y="583" type="curve" smooth="yes"/>
      <point x="211" y="576"/>
      <point x="205" y="571"/>
      <point x="198" y="571" type="curve" smooth="yes"/>
      <point x="191" y="571"/>
      <point x="185" y="576"/>
      <point x="185" y="583" type="curve" smooth="yes"/>
      <point x="185" y="590"/>
      <point x="191" y="596"/>
      <point x="198" y="596" type="curve" smooth="yes"/>
      <point x="205" y="596"/>
      <point x="211" y="590"/>
    </contour>
    <contour>
      <point x="447" y="388" type="line"/>
      <point x="422" y="388" type="line"/>
      <point x="387" y="334" type="line"/>
      <point x="374" y="334" type="line"/>
      <point x="403" y="388" type="line"/>
      <point x="374" y="388" type="line"/>
      <point x="356" y="334" type="line"/>
      <point x="344" y="334" type="line"/>
      <point x="358" y="388" type="line"/>
      <point x="326" y="388" type="line"/>
      <point x="323" y="334" type="line"/>
      <point x="313" y="334" type="line"/>
      <point x="310" y="388" type="line"/>
      <point x="278" y="388" type="line"/>
      <point x="291" y="334" type="line"/>
      <point x="280" y="334" type="line"/>
      <point x="261" y="388" type="line"/>
      <point x="233" y="388" type="line"/>
      <point x="262" y="334" type="line"/>
      <point x="249" y="334" type="line"/>
      <point x="214" y="388" type="line"/>
      <point x="189" y="388" type="line"/>
      <point x="189" y="402" type="line"/>
      <point x="447" y="402" type="line"/>
    </contour>
    <contour>
      <point x="381" y="299" type="line"/>
      <point x="255" y="299" type="line"/>
      <point x="255" y="326" type="line"/>
      <point x="381" y="326" type="line"/>
    </contour>
    <contour>
      <point x="421" y="241" type="line"/>
      <point x="215" y="241" type="line"/>
      <point x="234" y="277" type="line"/>
      <point x="402" y="277" type="line"/>
    </contour>
    <contour>
      <point x="452" y="186" type="line"/>
      <point x="184" y="186" type="line"/>
      <point x="202" y="217" type="line"/>
      <point x="434" y="217" type="line"/>
    </contour>
  </outline>
</glyph>
<glyph name="seven" format="1">
  <advance width="1000"/>
  <unicode hex="0037"/>
  <outline>
    <contour>
      <point x="987" y="60" type="line" smooth="yes"/>
      <point x="987" y="31"/>
      <point x="969" y="13"/>
      <point x="939" y="13" type="curve" smooth="yes"/>
      <point x="61" y="13" type="line" smooth="yes"/>
      <point x="31" y="13"/>
      <point x="13" y="31"/>
      <point x="13" y="60" type="curve" smooth="yes"/>
      <point x="13" y="940" type="line" smooth="yes"/>
      <point x="13" y="969"/>
      <point x="31" y="987"/>
      <point x="61" y="987" type="curve" smooth="yes"/>
      <point x="939" y="987" type="line" smooth="yes"/>
      <point x="969" y="987"/>
      <point x="987" y="969"/>
      <point x="987" y="940" type="curve" smooth="yes"/>
    </contour>
    <contour>
      <point x="984" y="60" type="curve" smooth="yes"/>
      <point x="984" y="940" type="line" smooth="yes"/>
      <point x="984" y="967"/>
      <point x="967" y="984"/>
      <point x="939" y="984" type="curve" smooth="yes"/>
      <point x="61" y="984" type="line" smooth="yes"/>
      <point x="33" y="984"/>
      <point x="16" y="967"/>
      <point x="16" y="940" type="curve" smooth="yes"/>
      <point x="16" y="60" type="line" smooth="yes"/>
      <point x="16" y="33"/>
      <point x="33" y="16"/>
      <point x="61" y="16" type="curve" smooth="yes"/>
      <point x="939" y="16" type="line" smooth="yes"/>
      <point x="967" y="16"/>
      <point x="984" y="33"/>
    </contour>
    <contour>
      <point x="965" y="60" type="line" smooth="yes"/>
      <point x="965" y="44"/>
      <point x="955" y="35"/>
      <point x="939" y="35" type="curve" smooth="yes"/>
      <point x="61" y="35" type="line" smooth="yes"/>
      <point x="45" y="35"/>
      <point x="35" y="44"/>
      <point x="35" y="60" type="curve" smooth="yes"/>
      <point x="35" y="940" type="line" smooth="yes"/>
      <point x="35" y="956"/>
      <point x="45" y="965"/>
      <point x="61" y="965" type="curve" smooth="yes"/>
      <point x="939" y="965" type="line" smooth="yes"/>
      <point x="955" y="965"/>
      <point x="965" y="956"/>
      <point x="965" y="940" type="curve" smooth="yes"/>
    </contour>
    <contour>
      <point x="877" y="552" type="curve" smooth="yes"/>
      <point x="877" y="574"/>
      <point x="850" y="574"/>
      <point x="830" y="582" type="curve" smooth="yes"/>
      <point x="815" y="588"/>
      <point x="815" y="593"/>
      <point x="788" y="593" type="curve" smooth="yes"/>
      <point x="763" y="593"/>
      <point x="742" y="581"/>
      <point x="737" y="580" type="curve" smooth="yes"/>
      <point x="615" y="557" type="line"/>
      <point x="224" y="709" type="line"/>
      <point x="210" y="709"/>
      <point x="206" y="705"/>
      <point x="206" y="705" type="curve"/>
      <point x="189" y="692" type="line"/>
      <point x="386" y="568" type="line"/>
      <point x="428" y="525" type="line"/>
      <point x="338" y="508" type="line"/>
      <point x="286" y="564" type="line" smooth="yes"/>
      <point x="282" y="568"/>
      <point x="269" y="577"/>
      <point x="263" y="576" type="curve" smooth="yes"/>
      <point x="246" y="573" type="line"/>
      <point x="251" y="515" type="line"/>
      <point x="177" y="550" type="line" smooth="yes"/>
      <point x="161" y="558"/>
      <point x="143" y="548"/>
      <point x="148" y="543" type="curve" smooth="yes"/>
      <point x="224" y="472" type="line"/>
      <point x="220" y="470"/>
      <point x="217" y="467"/>
      <point x="217" y="459" type="curve" smooth="yes"/>
      <point x="217" y="453"/>
      <point x="235" y="451"/>
      <point x="242" y="451" type="curve"/>
      <point x="278" y="403" type="line" smooth="yes"/>
      <point x="281" y="399"/>
      <point x="298" y="402"/>
      <point x="299" y="408" type="curve" smooth="yes"/>
      <point x="307" y="442" type="line"/>
      <point x="312" y="442"/>
      <point x="331" y="439"/>
      <point x="401" y="439" type="curve" smooth="yes"/>
      <point x="461" y="439"/>
      <point x="490" y="444"/>
      <point x="495" y="444" type="curve"/>
      <point x="540" y="404" type="line"/>
      <point x="540" y="296" type="line"/>
      <point x="563" y="298" type="line" smooth="yes"/>
      <point x="571" y="299"/>
      <point x="578" y="302"/>
      <point x="583" y="314" type="curve" smooth="yes"/>
      <point x="654" y="469" type="line"/>
      <point x="662" y="469"/>
      <point x="877" y="500"/>
    </contour>
  </outline>
</glyph>
<glyph name="eight" format="1">
  <advance width="1000"/>
  <unicode hex="0038"/>
  <outline>
    <contour>
      <point x="987" y="60" type="line" smooth="yes"/>
      <point x="987" y="31"/>
      <point x="969" y="13"/>
      <point x="939" y="13" type="curve" smooth="yes"/>
      <point x="61" y="13" type="line" smooth="yes"/>
      <point x="31" y="13"/>
      <point x="13" y="31"/>
      <point x="13" y="60" type="curve" smooth="yes"/>
      <point x="13" y="940" type="line" smooth="yes"/>
      <point x="13" y="969"/>
      <point x="31" y="987"/>
      <point x="61" y="987" type="curve" smooth="yes"/>
      <point x="939" y="987" type="line" smooth="yes"/>
      <point x="969" y="987"/>
      <point x="987" y="969"/>
      <point x="987" y="940" type="curve" smooth="yes"/>
    </contour>
    <contour>
      <point x="984" y="60" type="curve" smooth="yes"/>
      <point x="984" y="940" type="line" smooth="yes"/>
      <point x="984" y="967"/>
      <point x="967" y="984"/>
      <point x="939" y="984" type="curve" smooth="yes"/>
      <point x="61" y="984" type="line" smooth="yes"/>
      <point x="33" y="984"/>
      <point x="16" y="967"/>
      <point x="16" y="940" type="curve" smooth="yes"/>
      <point x="16" y="60" type="line" smooth="yes"/>
      <point x="16" y="33"/>
      <point x="33" y="16"/>
      <point x="61" y="16" type="curve" smooth="yes"/>
      <point x="939" y="16" type="line" smooth="yes"/>
      <point x="967" y="16"/>
      <point x="984" y="33"/>
    </contour>
    <contour>
      <point x="965" y="60" type="line" smooth="yes"/>
      <point x="965" y="44"/>
      <point x="955" y="35"/>
      <point x="939" y="35" type="curve" smooth="yes"/>
      <point x="61" y="35" type="line" smooth="yes"/>
      <point x="45" y="35"/>
      <point x="35" y="44"/>
      <point x="35" y="60" type="curve" smooth="yes"/>
      <point x="35" y="940" type="line" smooth="yes"/>
      <point x="35" y="956"/>
      <point x="45" y="965"/>
      <point x="61" y="965" type="curve" smooth="yes"/>
      <point x="939" y="965" type="line" smooth="yes"/>
      <point x="955" y="965"/>
      <point x="965" y="956"/>
      <point x="965" y="940" type="curve" smooth="yes"/>
    </contour>
    <contour>
      <point x="338" y="798" type="curve" smooth="yes"/>
      <point x="338" y="829"/>
      <point x="313" y="854"/>
      <point x="282" y="854" type="curve" smooth="yes"/>
      <point x="251" y="854"/>
      <point x="226" y="829"/>
      <point x="226" y="798" type="curve" smooth="yes"/>
      <point x="226" y="767"/>
      <point x="251" y="743"/>
      <point x="282" y="743" type="curve" smooth="yes"/>
      <point x="313" y="743"/>
      <point x="338" y="767"/>
    </contour>
    <contour>
      <point x="685" y="736" type="curve" smooth="yes"/>
      <point x="685" y="764"/>
      <point x="663" y="786"/>
      <point x="635" y="786" type="curve" smooth="yes"/>
      <point x="607" y="786"/>
      <point x="585" y="764"/>
      <point x="585" y="736" type="curve" smooth="yes"/>
      <point x="585" y="708"/>
      <point x="607" y="686"/>
      <point x="635" y="686" type="curve" smooth="yes"/>
      <point x="663" y="686"/>
      <point x="685" y="708"/>
    </contour>
    <contour>
      <point x="507" y="626" type="curve" smooth="yes"/>
      <point x="438" y="772" type="line" smooth="yes"/>
      <point x="429" y="790"/>
      <point x="379" y="763"/>
      <point x="386" y="748" type="curve" smooth="yes"/>
      <point x="458" y="603" type="line" smooth="yes"/>
      <point x="463" y="593"/>
      <point x="513" y="614"/>
    </contour>
    <contour>
      <point x="838" y="580" type="curve" smooth="yes"/>
      <point x="776" y="712" type="line" smooth="yes"/>
      <point x="768" y="728"/>
      <point x="722" y="704"/>
      <point x="729" y="690" type="curve" smooth="yes"/>
      <point x="794" y="558" type="line" smooth="yes"/>
      <point x="798" y="550"/>
      <point x="843" y="570"/>
    </contour>
    <contour>
      <point x="548" y="191" type="line"/>
      <point x="450" y="482" type="line"/>
      <point x="450" y="482"/>
      <point x="463" y="495"/>
      <point x="463" y="521" type="curve" smooth="yes"/>
      <point x="463" y="563"/>
      <point x="410" y="745"/>
      <point x="330" y="745" type="curve" smooth="yes"/>
      <point x="268" y="745"/>
      <point x="251" y="614"/>
      <point x="251" y="603" type="curve"/>
      <point x="127" y="515" type="line"/>
      <point x="148" y="482" type="line"/>
      <point x="161" y="489" type="line"/>
      <point x="265" y="320" type="line"/>
      <point x="237" y="168" type="line"/>
      <point x="304" y="152" type="line"/>
      <point x="319" y="232" type="line"/>
      <point x="319" y="233"/>
      <point x="363" y="161"/>
      <point x="363" y="161" type="curve"/>
      <point x="393" y="168" type="line"/>
      <point x="393" y="168"/>
      <point x="327" y="277"/>
      <point x="327" y="276" type="curve"/>
      <point x="338" y="336" type="line"/>
      <point x="385" y="393" type="line"/>
      <point x="505" y="152" type="line"/>
    </contour>
    <contour>
      <point x="874" y="189" type="line"/>
      <point x="786" y="451" type="line"/>
      <point x="786" y="451"/>
      <point x="798" y="462"/>
      <point x="798" y="486" type="curve" smooth="yes"/>
      <point x="798" y="524"/>
      <point x="750" y="687"/>
      <point x="678" y="687" type="curve" smooth="yes"/>
      <point x="622" y="687"/>
      <point x="607" y="569"/>
      <point x="607" y="560" type="curve"/>
      <point x="496" y="480" type="line"/>
      <point x="514" y="451" type="line"/>
      <point x="526" y="457" type="line"/>
      <point x="620" y="305" type="line"/>
      <point x="595" y="168" type="line"/>
      <point x="655" y="154" type="line"/>
      <point x="668" y="226" type="line"/>
      <point x="708" y="162" type="line"/>
      <point x="735" y="168" type="line"/>
      <point x="675" y="266" type="line"/>
      <point x="685" y="319" type="line"/>
      <point x="728" y="371" type="line"/>
      <point x="836" y="154" type="line"/>
    </contour>
    <contour>
      <point x="339" y="517" type="line"/>
      <point x="275" y="363" type="line"/>
      <point x="190" y="503" type="line"/>
      <point x="288" y="552" type="line"/>
      <point x="304" y="580" type="line"/>
    </contour>
    <contour>
      <point x="686" y="482" type="line"/>
      <point x="628" y="343" type="line"/>
      <point x="551" y="470" type="line"/>
      <point x="640" y="514" type="line"/>
      <point x="655" y="539" type="line"/>
    </contour>
  </outline>
</glyph>
<glyph name="nine" format="1">
  <advance width="1000"/>
  <unicode hex="0039"/>
  <outline>
    <contour>
      <point x="987" y="60" type="line" smooth="yes"/>
      <point x="987" y="31"/>
      <point x="969" y="13"/>
      <point x="939" y="13" type="curve" smooth="yes"/>
      <point x="61" y="13" type="line" smooth="yes"/>
      <point x="31" y="13"/>
      <point x="13" y="31"/>
      <point x="13" y="60" type="curve" smooth="yes"/>
      <point x="13" y="940" type="line" smooth="yes"/>
      <point x="13" y="969"/>
      <point x="31" y="987"/>
      <point x="61" y="987" type="curve" smooth="yes"/>
      <point x="939" y="987" type="line" smooth="yes"/>
      <point x="969" y="987"/>
      <point x="987" y="969"/>
      <point x="987" y="940" type="curve" smooth="yes"/>
    </contour>
    <contour>
      <point x="984" y="60" type="curve" smooth="yes"/>
      <point x="984" y="940" type="line" smooth="yes"/>
      <point x="984" y="967"/>
      <point x="967" y="984"/>
      <point x="939" y="984" type="curve" smooth="yes"/>
      <point x="61" y="984" type="line" smooth="yes"/>
      <point x="33" y="984"/>
      <point x="16" y="967"/>
      <point x="16" y="940" type="curve" smooth="yes"/>
      <point x="16" y="60" type="line" smooth="yes"/>
      <point x="16" y="33"/>
      <point x="33" y="16"/>
      <point x="61" y="16" type="curve" smooth="yes"/>
      <point x="939" y="16" type="line" smooth="yes"/>
      <point x="967" y="16"/>
      <point x="984" y="33"/>
    </contour>
    <contour>
      <point x="965" y="60" type="line" smooth="yes"/>
      <point x="965" y="44"/>
      <point x="955" y="35"/>
      <point x="939" y="35" type="curve" smooth="yes"/>
      <point x="61" y="35" type="line" smooth="yes"/>
      <point x="45" y="35"/>
      <point x="35" y="44"/>
      <point x="35" y="60" type="curve" smooth="yes"/>
      <point x="35" y="940" type="line" smooth="yes"/>
      <point x="35" y="956"/>
      <point x="45" y="965"/>
      <point x="61" y="965" type="curve" smooth="yes"/>
      <point x="939" y="965" type="line" smooth="yes"/>
      <point x="955" y="965"/>
      <point x="965" y="956"/>
      <point x="965" y="940" type="curve" smooth="yes"/>
    </contour>
    <contour>
      <point x="785" y="136" type="line"/>
      <point x="785" y="836" type="line"/>
      <point x="645" y="836" type="line"/>
      <point x="645" y="568" type="line"/>
      <point x="358" y="568" type="line"/>
      <point x="358" y="836" type="line"/>
      <point x="218" y="836" type="line"/>
      <point x="218" y="136" type="line"/>
      <point x="358" y="136" type="line"/>
      <point x="358" y="430" type="line"/>
      <point x="645" y="430" type="line"/>
      <point x="645" y="136" type="line"/>
    </contour>
  </outline>
</glyph>
<glyph name="colon" format="1">
  <advance width="1000"/>
  <unicode hex="003A"/>
  <outline>
    <contour>
      <point x="988" y="500" type="curve" smooth="yes"/>
      <point x="988" y="489"/>
      <point x="983" y="479"/>
      <point x="972" y="468" type="curve" smooth="yes"/>
      <point x="532" y="29" type="line" smooth="yes"/>
      <point x="521" y="18"/>
      <point x="511" y="13"/>
      <point x="500" y="13" type="curve" smooth="yes"/>
      <point x="489" y="13"/>
      <point x="478" y="18"/>
      <point x="467" y="29" type="curve" smooth="yes"/>
      <point x="28" y="468" type="line" smooth="yes"/>
      <point x="17" y="479"/>
      <point x="12" y="489"/>
      <point x="12" y="500" type="curve" smooth="yes"/>
      <point x="12" y="511"/>
      <point x="17" y="522"/>
      <point x="28" y="533" type="curve" smooth="yes"/>
      <point x="467" y="972" type="line" smooth="yes"/>
      <point x="478" y="983"/>
      <point x="489" y="988"/>
      <point x="500" y="988" type="curve" smooth="yes"/>
      <point x="511" y="988"/>
      <point x="522" y="983"/>
      <point x="533" y="972" type="curve" smooth="yes"/>
      <point x="972" y="533" type="line" smooth="yes"/>
      <point x="983" y="522"/>
      <point x="988" y="511"/>
    </contour>
    <contour>
      <point x="985" y="500" type="curve" smooth="yes"/>
      <point x="985" y="510"/>
      <point x="980" y="521"/>
      <point x="970" y="531" type="curve" smooth="yes"/>
      <point x="531" y="970" type="line" smooth="yes"/>
      <point x="521" y="980"/>
      <point x="510" y="985"/>
      <point x="500" y="985" type="curve" smooth="yes"/>
      <point x="490" y="985"/>
      <point x="479" y="980"/>
      <point x="469" y="970" type="curve" smooth="yes"/>
      <point x="30" y="531" type="line" smooth="yes"/>
      <point x="20" y="521"/>
      <point x="15" y="510"/>
      <point x="15" y="500" type="curve" smooth="yes"/>
      <point x="15" y="490"/>
      <point x="20" y="480"/>
      <point x="30" y="470" type="curve" smooth="yes"/>
      <point x="469" y="31" type="line" smooth="yes"/>
      <point x="479" y="21"/>
      <point x="490" y="16"/>
      <point x="500" y="16" type="curve" smooth="yes"/>
      <point x="510" y="16"/>
      <point x="520" y="21"/>
      <point x="530" y="31" type="curve" smooth="yes"/>
      <point x="970" y="470" type="line" smooth="yes"/>
      <point x="980" y="480"/>
      <point x="985" y="490"/>
    </contour>
    <contour>
      <point x="973" y="500" type="curve" smooth="yes"/>
      <point x="973" y="492"/>
      <point x="970" y="485"/>
      <point x="962" y="477" type="curve" smooth="yes"/>
      <point x="523" y="38" type="line" smooth="yes"/>
      <point x="515" y="30"/>
      <point x="508" y="27"/>
      <point x="500" y="27" type="curve" smooth="yes"/>
      <point x="492" y="27"/>
      <point x="485" y="30"/>
      <point x="477" y="38" type="curve" smooth="yes"/>
      <point x="38" y="477" type="line" smooth="yes"/>
      <point x="30" y="485"/>
      <point x="27" y="492"/>
      <point x="27" y="500" type="curve" smooth="yes"/>
      <point x="27" y="508"/>
      <point x="30" y="515"/>
      <point x="38" y="523" type="curve" smooth="yes"/>
      <point x="477" y="962" type="line" smooth="yes"/>
      <point x="485" y="970"/>
      <point x="492" y="973"/>
      <point x="500" y="973" type="curve" smooth="yes"/>
      <point x="508" y="973"/>
      <point x="515" y="970"/>
      <point x="523" y="962" type="curve" smooth="yes"/>
      <point x="962" y="523" type="line" smooth="yes"/>
      <point x="970" y="515"/>
      <point x="973" y="508"/>
    </contour>
    <contour>
      <point x="956" y="500" type="curve" smooth="yes"/>
      <point x="956" y="504"/>
      <point x="954" y="507"/>
      <point x="950" y="511" type="curve" smooth="yes"/>
      <point x="511" y="950" type="line" smooth="yes"/>
      <point x="507" y="954"/>
      <point x="504" y="956"/>
      <point x="500" y="956" type="curve" smooth="yes"/>
      <point x="496" y="956"/>
      <point x="493" y="954"/>
      <point x="489" y="950" type="curve" smooth="yes"/>
      <point x="50" y="511" type="line" smooth="yes"/>
      <point x="46" y="507"/>
      <point x="44" y="504"/>
      <point x="44" y="500" type="curve" smooth="yes"/>
      <point x="44" y="496"/>
      <point x="46" y="493"/>
      <point x="50" y="489" type="curve" smooth="yes"/>
      <point x="489" y="50" type="line" smooth="yes"/>
      <point x="493" y="46"/>
      <point x="496" y="44"/>
      <point x="500" y="44" type="curve" smooth="yes"/>
      <point x="504" y="44"/>
      <point x="507" y="46"/>
      <point x="511" y="50" type="curve" smooth="yes"/>
      <point x="950" y="489" type="line" smooth="yes"/>
      <point x="954" y="493"/>
      <point x="956" y="496"/>
    </contour>
    <contour>
      <point x="744" y="638" type="line"/>
      <point x="717" y="638" type="line"/>
      <point x="717" y="542" type="line"/>
      <point x="701" y="542" type="line"/>
      <point x="701" y="638" type="line"/>
      <point x="674" y="638" type="line"/>
      <point x="674" y="654" type="line"/>
      <point x="744" y="654" type="line"/>
    </contour>
    <contour>
      <point x="664" y="542" type="line"/>
      <point x="599" y="542" type="line"/>
      <point x="599" y="654" type="line"/>
      <point x="661" y="654" type="line"/>
      <point x="661" y="638" type="line"/>
      <point x="615" y="638" type="line"/>
      <point x="615" y="610" type="line"/>
      <point x="643" y="610" type="line"/>
      <point x="643" y="594" type="line"/>
      <point x="615" y="594" type="line"/>
      <point x="615" y="558" type="line"/>
      <point x="664" y="558" type="line"/>
    </contour>
    <contour>
      <point x="586" y="542" type="line"/>
      <point x="521" y="542" type="line"/>
      <point x="521" y="654" type="line"/>
      <point x="583" y="654" type="line"/>
      <point x="583" y="638" type="line"/>
      <point x="537" y="638" type="line"/>
      <point x="537" y="610" type="line"/>
      <point x="565" y="610" type="line"/>
      <point x="565" y="594" type="line"/>
      <point x="537" y="594" type="line"/>
      <point x="537" y="558" type="line"/>
      <point x="586" y="558" type="line"/>
    </contour>
    <contour>
      <point x="505" y="622" type="curve" smooth="yes"/>
      <point x="505" y="605"/>
      <point x="496" y="595"/>
      <point x="483" y="591" type="curve"/>
      <point x="504" y="542" type="line"/>
      <point x="485" y="542" type="line"/>
      <point x="466" y="589" type="line"/>
      <point x="447" y="589" type="line"/>
      <point x="447" y="542" type="line"/>
      <point x="431" y="542" type="line"/>
      <point x="431" y="654" type="line"/>
      <point x="471" y="654" type="line" smooth="yes"/>
      <point x="489" y="654"/>
      <point x="505" y="644"/>
    </contour>
    <contour>
      <point x="416" y="638" type="line"/>
      <point x="389" y="638" type="line"/>
      <point x="389" y="542" type="line"/>
      <point x="373" y="542" type="line"/>
      <point x="373" y="638" type="line"/>
      <point x="346" y="638" type="line"/>
      <point x="346" y="654" type="line"/>
      <point x="416" y="654" type="line"/>
    </contour>
    <contour>
      <point x="338" y="573" type="curve" smooth="yes"/>
      <point x="338" y="554"/>
      <point x="327" y="540"/>
      <point x="302" y="540" type="curve" smooth="yes"/>
      <point x="287" y="540"/>
      <point x="275" y="547"/>
      <point x="267" y="559" type="curve"/>
      <point x="280" y="569" type="line"/>
      <point x="287" y="560"/>
      <point x="295" y="556"/>
      <point x="303" y="556" type="curve" smooth="yes"/>
      <point x="315" y="556"/>
      <point x="322" y="562"/>
      <point x="322" y="572" type="curve" smooth="yes"/>
      <point x="322" y="580"/>
      <point x="317" y="586"/>
      <point x="300" y="593" type="curve" smooth="yes"/>
      <point x="282" y="601"/>
      <point x="271" y="607"/>
      <point x="271" y="626" type="curve" smooth="yes"/>
      <point x="271" y="644"/>
      <point x="284" y="656"/>
      <point x="303" y="656" type="curve" smooth="yes"/>
      <point x="318" y="656"/>
      <point x="327" y="650"/>
      <point x="335" y="641" type="curve"/>
      <point x="324" y="630" type="line"/>
      <point x="318" y="637"/>
      <point x="312" y="640"/>
      <point x="303" y="640" type="curve" smooth="yes"/>
      <point x="292" y="640"/>
      <point x="287" y="634"/>
      <point x="287" y="627" type="curve" smooth="yes"/>
      <point x="287" y="619"/>
      <point x="292" y="615"/>
      <point x="308" y="608" type="curve" smooth="yes"/>
      <point x="326" y="600"/>
      <point x="338" y="592"/>
    </contour>
    <contour>
      <point x="764" y="418" type="curve" smooth="yes"/>
      <point x="764" y="383"/>
      <point x="745" y="363"/>
      <point x="719" y="363" type="curve" smooth="yes"/>
      <point x="690" y="363" type="line"/>
      <point x="690" y="473" type="line"/>
      <point x="719" y="473" type="line" smooth="yes"/>
      <point x="746" y="473"/>
      <point x="764" y="454"/>
    </contour>
    <contour>
      <point x="669" y="363" type="line"/>
      <point x="604" y="363" type="line"/>
      <point x="604" y="474" type="line"/>
      <point x="666" y="474" type="line"/>
      <point x="666" y="458" type="line"/>
      <point x="620" y="458" type="line"/>
      <point x="620" y="430" type="line"/>
      <point x="648" y="430" type="line"/>
      <point x="648" y="414" type="line"/>
      <point x="620" y="414" type="line"/>
      <point x="620" y="379" type="line"/>
      <point x="669" y="379" type="line"/>
    </contour>
    <contour>
      <point x="579" y="393" type="curve" smooth="yes"/>
      <point x="579" y="374"/>
      <point x="568" y="360"/>
      <point x="543" y="360" type="curve" smooth="yes"/>
      <point x="528" y="360"/>
      <point x="516" y="367"/>
      <point x="508" y="379" type="curve"/>
      <point x="521" y="389" type="line"/>
      <point x="528" y="380"/>
      <point x="536" y="376"/>
      <point x="544" y="376" type="curve" smooth="yes"/>
      <point x="556" y="376"/>
      <point x="563" y="382"/>
      <point x="563" y="392" type="curve" smooth="yes"/>
      <point x="563" y="400"/>
      <point x="558" y="406"/>
      <point x="541" y="413" type="curve" smooth="yes"/>
      <point x="523" y="421"/>
      <point x="512" y="427"/>
      <point x="512" y="446" type="curve" smooth="yes"/>
      <point x="512" y="464"/>
      <point x="525" y="476"/>
      <point x="544" y="476" type="curve" smooth="yes"/>
      <point x="559" y="476"/>
      <point x="568" y="470"/>
      <point x="576" y="461" type="curve"/>
      <point x="565" y="450" type="line"/>
      <point x="559" y="457"/>
      <point x="553" y="460"/>
      <point x="544" y="460" type="curve" smooth="yes"/>
      <point x="533" y="460"/>
      <point x="528" y="454"/>
      <point x="528" y="447" type="curve" smooth="yes"/>
      <point x="528" y="439"/>
      <point x="533" y="435"/>
      <point x="549" y="428" type="curve" smooth="yes"/>
      <point x="567" y="420"/>
      <point x="579" y="412"/>
    </contour>
    <contour>
      <point x="493" y="418" type="curve" smooth="yes"/>
      <point x="493" y="386"/>
      <point x="479" y="361"/>
      <point x="453" y="361" type="curve" smooth="yes"/>
      <point x="427" y="361"/>
      <point x="413" y="386"/>
      <point x="413" y="418" type="curve" smooth="yes"/>
      <point x="413" y="451"/>
      <point x="427" y="475"/>
      <point x="453" y="475" type="curve" smooth="yes"/>
      <point x="479" y="475"/>
      <point x="493" y="451"/>
    </contour>
    <contour>
      <point x="401" y="363" type="line"/>
      <point x="340" y="363" type="line"/>
      <point x="340" y="473" type="line"/>
      <point x="357" y="473" type="line"/>
      <point x="357" y="378" type="line"/>
      <point x="401" y="378" type="line"/>
    </contour>
    <contour>
      <point x="317" y="386" type="line"/>
      <point x="311" y="371"/>
      <point x="300" y="361"/>
      <point x="282" y="361" type="curve" smooth="yes"/>
      <point x="256" y="361"/>
      <point x="243" y="386"/>
      <point x="243" y="418" type="curve" smooth="yes"/>
      <point x="243" y="451"/>
      <point x="257" y="475"/>
      <point x="283" y="475" type="curve" smooth="yes"/>
      <point x="301" y="475"/>
      <point x="311" y="466"/>
      <point x="316" y="452" type="curve"/>
      <point x="301" y="445" type="line"/>
      <point x="297" y="455"/>
      <point x="292" y="459"/>
      <point x="282" y="459" type="curve" smooth="yes"/>
      <point x="266" y="459"/>
      <point x="259" y="441"/>
      <point x="259" y="418" type="curve" smooth="yes"/>
      <point x="259" y="396"/>
      <point x="266" y="377"/>
      <point x="283" y="377" type="curve" smooth="yes"/>
      <point x="292" y="377"/>
      <point x="298" y="382"/>
      <point x="303" y="392" type="curve"/>
    </contour>
    <contour>
      <point x="488" y="621" type="curve" smooth="yes"/>
      <point x="488" y="633"/>
      <point x="481" y="638"/>
      <point x="470" y="638" type="curve" smooth="yes"/>
      <point x="447" y="638" type="line"/>
      <point x="447" y="604" type="line"/>
      <point x="470" y="604" type="line" smooth="yes"/>
      <point x="481" y="604"/>
      <point x="488" y="609"/>
    </contour>
    <contour>
      <point x="747" y="418" type="curve" smooth="yes"/>
      <point x="747" y="440"/>
      <point x="740" y="458"/>
      <point x="719" y="458" type="curve" smooth="yes"/>
      <point x="707" y="458" type="line"/>
      <point x="707" y="378" type="line"/>
      <point x="719" y="378" type="line" smooth="yes"/>
      <point x="740" y="378"/>
      <point x="747" y="397"/>
    </contour>
    <contour>
      <point x="477" y="418" type="curve" smooth="yes"/>
      <point x="477" y="440"/>
      <point x="470" y="459"/>
      <point x="453" y="459" type="curve" smooth="yes"/>
      <point x="436" y="459"/>
      <point x="430" y="440"/>
      <point x="430" y="418" type="curve" smooth="yes"/>
      <point x="430" y="396"/>
      <point x="436" y="377"/>
      <point x="453" y="377" type="curve" smooth="yes"/>
      <point x="470" y="377"/>
      <point x="477" y="396"/>
    </contour>
  </outline>
</glyph>
<glyph name="semicolon" format="1">
  <advance width="1000"/>
  <unicode hex="003B"/>
  <outline>
    <contour>
      <point x="988" y="500" type="curve" smooth="yes"/>
      <point x="988" y="489"/>
      <point x="983" y="479"/>
      <point x="972" y="468" type="curve" smooth="yes"/>
      <point x="532" y="29" type="line" smooth="yes"/>
      <point x="521" y="18"/>
      <point x="511" y="13"/>
      <point x="500" y="13" type="curve" smooth="yes"/>
      <point x="489" y="13"/>
      <point x="478" y="18"/>
      <point x="467" y="29" type="curve" smooth="yes"/>
      <point x="28" y="468" type="line" smooth="yes"/>
      <point x="17" y="479"/>
      <point x="12" y="489"/>
      <point x="12" y="500" type="curve" smooth="yes"/>
      <point x="12" y="511"/>
      <point x="17" y="522"/>
      <point x="28" y="533" type="curve" smooth="yes"/>
      <point x="467" y="972" type="line" smooth="yes"/>
      <point x="478" y="983"/>
      <point x="489" y="988"/>
      <point x="500" y="988" type="curve" smooth="yes"/>
      <point x="511" y="988"/>
      <point x="522" y="983"/>
      <point x="533" y="972" type="curve" smooth="yes"/>
      <point x="972" y="533" type="line" smooth="yes"/>
      <point x="983" y="522"/>
      <point x="988" y="511"/>
    </contour>
    <contour>
      <point x="985" y="500" type="curve" smooth="yes"/>
      <point x="985" y="510"/>
      <point x="980" y="521"/>
      <point x="970" y="531" type="curve" smooth="yes"/>
      <point x="531" y="970" type="line" smooth="yes"/>
      <point x="521" y="980"/>
      <point x="510" y="985"/>
      <point x="500" y="985" type="curve" smooth="yes"/>
      <point x="490" y="985"/>
      <point x="479" y="980"/>
      <point x="469" y="970" type="curve" smooth="yes"/>
      <point x="30" y="531" type="line" smooth="yes"/>
      <point x="20" y="521"/>
      <point x="15" y="510"/>
      <point x="15" y="500" type="curve" smooth="yes"/>
      <point x="15" y="490"/>
      <point x="20" y="480"/>
      <point x="30" y="470" type="curve" smooth="yes"/>
      <point x="469" y="31" type="line" smooth="yes"/>
      <point x="479" y="21"/>
      <point x="490" y="16"/>
      <point x="500" y="16" type="curve" smooth="yes"/>
      <point x="510" y="16"/>
      <point x="520" y="21"/>
      <point x="530" y="31" type="curve" smooth="yes"/>
      <point x="970" y="470" type="line" smooth="yes"/>
      <point x="980" y="480"/>
      <point x="985" y="490"/>
    </contour>
    <contour>
      <point x="973" y="500" type="curve" smooth="yes"/>
      <point x="973" y="492"/>
      <point x="970" y="485"/>
      <point x="962" y="477" type="curve" smooth="yes"/>
      <point x="523" y="38" type="line" smooth="yes"/>
      <point x="515" y="30"/>
      <point x="508" y="27"/>
      <point x="500" y="27" type="curve" smooth="yes"/>
      <point x="492" y="27"/>
      <point x="485" y="30"/>
      <point x="477" y="38" type="curve" smooth="yes"/>
      <point x="38" y="477" type="line" smooth="yes"/>
      <point x="30" y="485"/>
      <point x="27" y="492"/>
      <point x="27" y="500" type="curve" smooth="yes"/>
      <point x="27" y="508"/>
      <point x="30" y="515"/>
      <point x="38" y="523" type="curve" smooth="yes"/>
      <point x="477" y="962" type="line" smooth="yes"/>
      <point x="485" y="970"/>
      <point x="492" y="973"/>
      <point x="500" y="973" type="curve" smooth="yes"/>
      <point x="508" y="973"/>
      <point x="515" y="970"/>
      <point x="523" y="962" type="curve" smooth="yes"/>
      <point x="962" y="523" type="line" smooth="yes"/>
      <point x="970" y="515"/>
      <point x="973" y="508"/>
    </contour>
    <contour>
      <point x="956" y="500" type="curve" smooth="yes"/>
      <point x="956" y="504"/>
      <point x="954" y="507"/>
      <point x="950" y="511" type="curve" smooth="yes"/>
      <point x="511" y="950" type="line" smooth="yes"/>
      <point x="507" y="954"/>
      <point x="504" y="956"/>
      <point x="500" y="956" type="curve" smooth="yes"/>
      <point x="496" y="956"/>
      <point x="493" y="954"/>
      <point x="489" y="950" type="curve" smooth="yes"/>
      <point x="50" y="511" type="line" smooth="yes"/>
      <point x="46" y="507"/>
      <point x="44" y="504"/>
      <point x="44" y="500" type="curve" smooth="yes"/>
      <point x="44" y="496"/>
      <point x="46" y="493"/>
      <point x="50" y="489" type="curve" smooth="yes"/>
      <point x="489" y="50" type="line" smooth="yes"/>
      <point x="493" y="46"/>
      <point x="496" y="44"/>
      <point x="500" y="44" type="curve" smooth="yes"/>
      <point x="504" y="44"/>
      <point x="507" y="46"/>
      <point x="511" y="50" type="curve" smooth="yes"/>
      <point x="950" y="489" type="line" smooth="yes"/>
      <point x="954" y="493"/>
      <point x="956" y="496"/>
    </contour>
    <contour>
      <point x="691" y="699" type="curve" smooth="yes"/>
      <point x="691" y="664"/>
      <point x="673" y="644"/>
      <point x="647" y="644" type="curve" smooth="yes"/>
      <point x="618" y="644" type="line"/>
      <point x="618" y="754" type="line"/>
      <point x="647" y="754" type="line" smooth="yes"/>
      <point x="674" y="754"/>
      <point x="691" y="734"/>
    </contour>
    <contour>
      <point x="596" y="644" type="line"/>
      <point x="580" y="644" type="line"/>
      <point x="571" y="672" type="line"/>
      <point x="538" y="672" type="line"/>
      <point x="529" y="644" type="line"/>
      <point x="513" y="644" type="line"/>
      <point x="546" y="755" type="line"/>
      <point x="563" y="755" type="line"/>
    </contour>
    <contour>
      <point x="500" y="700" type="curve" smooth="yes"/>
      <point x="500" y="667"/>
      <point x="487" y="642"/>
      <point x="461" y="642" type="curve" smooth="yes"/>
      <point x="434" y="642"/>
      <point x="421" y="667"/>
      <point x="421" y="700" type="curve" smooth="yes"/>
      <point x="421" y="732"/>
      <point x="434" y="756"/>
      <point x="461" y="756" type="curve" smooth="yes"/>
      <point x="487" y="756"/>
      <point x="500" y="732"/>
    </contour>
    <contour>
      <point x="405" y="722" type="curve" smooth="yes"/>
      <point x="405" y="706"/>
      <point x="397" y="696"/>
      <point x="384" y="692" type="curve"/>
      <point x="404" y="644" type="line"/>
      <point x="386" y="644" type="line"/>
      <point x="367" y="690" type="line"/>
      <point x="348" y="690" type="line"/>
      <point x="348" y="644" type="line"/>
      <point x="332" y="644" type="line"/>
      <point x="332" y="754" type="line"/>
      <point x="372" y="754" type="line" smooth="yes"/>
      <point x="390" y="754"/>
      <point x="405" y="745"/>
    </contour>
    <contour>
      <point x="764" y="517" type="curve" smooth="yes"/>
      <point x="764" y="482"/>
      <point x="745" y="462"/>
      <point x="719" y="462" type="curve" smooth="yes"/>
      <point x="690" y="462" type="line"/>
      <point x="690" y="572" type="line"/>
      <point x="719" y="572" type="line" smooth="yes"/>
      <point x="746" y="572"/>
      <point x="764" y="553"/>
    </contour>
    <contour>
      <point x="669" y="462" type="line"/>
      <point x="604" y="462" type="line"/>
      <point x="604" y="573" type="line"/>
      <point x="666" y="573" type="line"/>
      <point x="666" y="557" type="line"/>
      <point x="620" y="557" type="line"/>
      <point x="620" y="529" type="line"/>
      <point x="648" y="529" type="line"/>
      <point x="648" y="513" type="line"/>
      <point x="620" y="513" type="line"/>
      <point x="620" y="478" type="line"/>
      <point x="669" y="478" type="line"/>
    </contour>
    <contour>
      <point x="578" y="492" type="curve" smooth="yes"/>
      <point x="578" y="473"/>
      <point x="566" y="460"/>
      <point x="542" y="460" type="curve" smooth="yes"/>
      <point x="527" y="460"/>
      <point x="516" y="467"/>
      <point x="508" y="478" type="curve"/>
      <point x="520" y="489" type="line"/>
      <point x="527" y="480"/>
      <point x="535" y="476"/>
      <point x="543" y="476" type="curve" smooth="yes"/>
      <point x="555" y="476"/>
      <point x="561" y="481"/>
      <point x="561" y="491" type="curve" smooth="yes"/>
      <point x="561" y="500"/>
      <point x="556" y="504"/>
      <point x="540" y="512" type="curve"/>
      <point x="522" y="519"/>
      <point x="511" y="526"/>
      <point x="511" y="545" type="curve" smooth="yes"/>
      <point x="511" y="562"/>
      <point x="525" y="574"/>
      <point x="543" y="574" type="curve" smooth="yes"/>
      <point x="557" y="574"/>
      <point x="567" y="569"/>
      <point x="575" y="559" type="curve"/>
      <point x="563" y="548" type="line"/>
      <point x="557" y="555"/>
      <point x="552" y="558"/>
      <point x="543" y="558" type="curve" smooth="yes"/>
      <point x="532" y="558"/>
      <point x="528" y="553"/>
      <point x="528" y="545" type="curve" smooth="yes"/>
      <point x="528" y="538"/>
      <point x="532" y="534"/>
      <point x="548" y="527" type="curve" smooth="yes"/>
      <point x="566" y="520"/>
      <point x="578" y="511"/>
    </contour>
    <contour>
      <point x="493" y="517" type="curve" smooth="yes"/>
      <point x="493" y="485"/>
      <point x="479" y="460"/>
      <point x="453" y="460" type="curve" smooth="yes"/>
      <point x="427" y="460"/>
      <point x="413" y="485"/>
      <point x="413" y="517" type="curve" smooth="yes"/>
      <point x="413" y="550"/>
      <point x="427" y="574"/>
      <point x="453" y="574" type="curve" smooth="yes"/>
      <point x="479" y="574"/>
      <point x="493" y="550"/>
    </contour>
    <contour>
      <point x="401" y="462" type="line"/>
      <point x="340" y="462" type="line"/>
      <point x="340" y="572" type="line"/>
      <point x="357" y="572" type="line"/>
      <point x="357" y="477" type="line"/>
      <point x="401" y="477" type="line"/>
    </contour>
    <contour>
      <point x="317" y="485" type="line"/>
      <point x="311" y="470"/>
      <point x="300" y="460"/>
      <point x="282" y="460" type="curve" smooth="yes"/>
      <point x="256" y="460"/>
      <point x="243" y="485"/>
      <point x="243" y="517" type="curve" smooth="yes"/>
      <point x="243" y="550"/>
      <point x="257" y="574"/>
      <point x="283" y="574" type="curve" smooth="yes"/>
      <point x="301" y="574"/>
      <point x="311" y="565"/>
      <point x="316" y="551" type="curve"/>
      <point x="301" y="544" type="line"/>
      <point x="297" y="554"/>
      <point x="292" y="558"/>
      <point x="282" y="558" type="curve" smooth="yes"/>
      <point x="266" y="558"/>
      <point x="259" y="540"/>
      <point x="259" y="517" type="curve" smooth="yes"/>
      <point x="259" y="495"/>
      <point x="266" y="476"/>
      <point x="283" y="476" type="curve" smooth="yes"/>
      <point x="292" y="476"/>
      <point x="298" y="481"/>
      <point x="303" y="491" type="curve"/>
    </contour>
    <contour>
      <point x="389" y="722" type="curve" smooth="yes"/>
      <point x="389" y="733"/>
      <point x="381" y="739"/>
      <point x="371" y="739" type="curve" smooth="yes"/>
      <point x="348" y="739" type="line"/>
      <point x="348" y="705" type="line"/>
      <point x="371" y="705" type="line" smooth="yes"/>
      <point x="382" y="705"/>
      <point x="389" y="710"/>
    </contour>
    <contour>
      <point x="567" y="687" type="line"/>
      <point x="554" y="732" type="line"/>
      <point x="542" y="687" type="line"/>
    </contour>
    <contour>
      <point x="675" y="699" type="curve" smooth="yes"/>
      <point x="675" y="720"/>
      <point x="667" y="739"/>
      <point x="647" y="739" type="curve" smooth="yes"/>
      <point x="635" y="739" type="line"/>
      <point x="635" y="659" type="line"/>
      <point x="647" y="659" type="line" smooth="yes"/>
      <point x="667" y="659"/>
      <point x="675" y="678"/>
    </contour>
    <contour>
      <point x="485" y="700" type="curve" smooth="yes"/>
      <point x="485" y="722"/>
      <point x="477" y="741"/>
      <point x="461" y="741" type="curve" smooth="yes"/>
      <point x="444" y="741"/>
      <point x="437" y="722"/>
      <point x="437" y="700" type="curve" smooth="yes"/>
      <point x="437" y="677"/>
      <point x="444" y="658"/>
      <point x="461" y="658" type="curve" smooth="yes"/>
      <point x="477" y="658"/>
      <point x="485" y="677"/>
    </contour>
    <contour>
      <point x="747" y="517" type="curve" smooth="yes"/>
      <point x="747" y="539"/>
      <point x="740" y="557"/>
      <point x="719" y="557" type="curve" smooth="yes"/>
      <point x="707" y="557" type="line"/>
      <point x="707" y="477" type="line"/>
      <point x="719" y="477" type="line" smooth="yes"/>
      <point x="740" y="477"/>
      <point x="747" y="496"/>
    </contour>
    <contour>
      <point x="477" y="517" type="curve" smooth="yes"/>
      <point x="477" y="539"/>
      <point x="470" y="558"/>
      <point x="453" y="558" type="curve" smooth="yes"/>
      <point x="436" y="558"/>
      <point x="430" y="539"/>
      <point x="430" y="517" type="curve" smooth="yes"/>
      <point x="430" y="495"/>
      <point x="436" y="476"/>
      <point x="453" y="476" type="curve" smooth="yes"/>
      <point x="470" y="476"/>
      <point x="477" y="495"/>
    </contour>
  </outline>
</glyph>
<glyph name="equal" format="1">
  <advance width="1000"/>
  <unicode hex="003D"/>
  <outline>
    <contour>
      <point x="987" y="425" type="line" smooth="yes"/>
      <point x="987" y="396"/>
      <point x="969" y="378"/>
      <point x="939" y="378" type="curve" smooth="yes"/>
      <point x="61" y="378" type="line" smooth="yes"/>
      <point x="31" y="378"/>
      <point x="13" y="396"/>
      <point x="13" y="425" type="curve" smooth="yes"/>
      <point x="13" y="576" type="line" smooth="yes"/>
      <point x="13" y="605"/>
      <point x="31" y="623"/>
      <point x="61" y="623" type="curve" smooth="yes"/>
      <point x="939" y="623" type="line" smooth="yes"/>
      <point x="969" y="623"/>
      <point x="987" y="605"/>
      <point x="987" y="576" type="curve" smooth="yes"/>
    </contour>
    <contour>
      <point x="984" y="425" type="curve" smooth="yes"/>
      <point x="984" y="576" type="line" smooth="yes"/>
      <point x="984" y="603"/>
      <point x="967" y="620"/>
      <point x="939" y="620" type="curve" smooth="yes"/>
      <point x="61" y="620" type="line" smooth="yes"/>
      <point x="33" y="620"/>
      <point x="16" y="603"/>
      <point x="16" y="576" type="curve" smooth="yes"/>
      <point x="16" y="425" type="line" smooth="yes"/>
      <point x="16" y="398"/>
      <point x="33" y="381"/>
      <point x="61" y="381" type="curve" smooth="yes"/>
      <point x="939" y="381" type="line" smooth="yes"/>
      <point x="967" y="381"/>
      <point x="984" y="398"/>
    </contour>
    <contour>
      <point x="965" y="425" type="line" smooth="yes"/>
      <point x="965" y="409"/>
      <point x="956" y="400"/>
      <point x="939" y="400" type="curve" smooth="yes"/>
      <point x="61" y="400" type="line" smooth="yes"/>
      <point x="44" y="400"/>
      <point x="35" y="409"/>
      <point x="35" y="425" type="curve" smooth="yes"/>
      <point x="35" y="576" type="line" smooth="yes"/>
      <point x="35" y="592"/>
      <point x="44" y="601"/>
      <point x="61" y="601" type="curve" smooth="yes"/>
      <point x="939" y="601" type="line" smooth="yes"/>
      <point x="956" y="601"/>
      <point x="965" y="592"/>
      <point x="965" y="576" type="curve" smooth="yes"/>
    </contour>
    <contour>
      <point x="809" y="500" type="line"/>
      <point x="690" y="575" type="line" smooth="yes"/>
      <point x="679" y="582"/>
      <point x="669" y="575"/>
      <point x="673" y="559" type="curve" smooth="yes"/>
      <point x="680" y="530" type="line"/>
      <point x="190" y="530" type="line"/>
      <point x="190" y="470" type="line"/>
      <point x="680" y="470" type="line"/>
      <point x="673" y="441" type="line" smooth="yes"/>
      <point x="669" y="425"/>
      <point x="679" y="418"/>
      <point x="690" y="425" type="curve" smooth="yes"/>
    </contour>
  </outline>
</glyph>
<glyph name="C" format="1">
  <advance width="1000"/>
  <unicode hex="0043"/>
  <outline>
    <contour>
      <point x="986" y="837" type="line"/>
      <point x="651" y="502" type="line"/>
      <point x="985" y="168" type="line"/>
      <point x="833" y="16" type="line"/>
      <point x="500" y="349" type="line"/>
      <point x="167" y="16" type="line"/>
      <point x="15" y="168" type="line"/>
      <point x="349" y="502" type="line"/>
      <point x="15" y="836" type="line"/>
      <point x="166" y="987" type="line"/>
      <point x="500" y="653" type="line"/>
      <point x="835" y="988" type="line"/>
    </contour>
    <contour>
      <point x="982" y="837" type="line"/>
      <point x="835" y="984" type="line"/>
      <point x="500" y="649" type="line"/>
      <point x="166" y="983" type="line"/>
      <point x="19" y="836" type="line"/>
      <point x="353" y="502" type="line"/>
      <point x="19" y="168" type="line"/>
      <point x="167" y="20" type="line"/>
      <point x="500" y="353" type="line"/>
      <point x="833" y="20" type="line"/>
      <point x="981" y="168" type="line"/>
      <point x="647" y="502" type="line"/>
    </contour>
    <contour>
      <point x="180" y="857" type="curve" smooth="yes"/>
      <point x="167" y="844"/>
      <point x="153" y="843"/>
      <point x="141" y="849" type="curve"/>
      <point x="119" y="797" type="line"/>
      <point x="105" y="811" type="line"/>
      <point x="126" y="861" type="line"/>
      <point x="111" y="875" type="line"/>
      <point x="77" y="840" type="line"/>
      <point x="64" y="852" type="line"/>
      <point x="148" y="937" type="line"/>
      <point x="179" y="906" type="line" smooth="yes"/>
      <point x="192" y="893"/>
      <point x="197" y="874"/>
    </contour>
    <contour>
      <point x="909" y="823" type="curve" smooth="yes"/>
      <point x="889" y="803"/>
      <point x="860" y="811"/>
      <point x="835" y="836" type="curve" smooth="yes"/>
      <point x="810" y="861"/>
      <point x="803" y="890"/>
      <point x="823" y="910" type="curve" smooth="yes"/>
      <point x="836" y="923"/>
      <point x="851" y="924"/>
      <point x="866" y="917" type="curve"/>
      <point x="860" y="901" type="line"/>
      <point x="849" y="905"/>
      <point x="842" y="905"/>
      <point x="835" y="897" type="curve" smooth="yes"/>
      <point x="823" y="885"/>
      <point x="829" y="866"/>
      <point x="848" y="848" type="curve" smooth="yes"/>
      <point x="864" y="832"/>
      <point x="884" y="823"/>
      <point x="897" y="835" type="curve" smooth="yes"/>
      <point x="908" y="846"/>
      <point x="906" y="857"/>
      <point x="896" y="867" type="curve" smooth="yes"/>
      <point x="892" y="871" type="line"/>
      <point x="880" y="859" type="line"/>
      <point x="869" y="871" type="line"/>
      <point x="893" y="895" type="line"/>
      <point x="908" y="880" type="line" smooth="yes"/>
      <point x="926" y="862"/>
      <point x="927" y="841"/>
    </contour>
    <contour>
      <point x="269" y="816" type="line"/>
      <point x="210" y="706" type="line"/>
      <point x="197" y="719" type="line"/>
      <point x="212" y="746" type="line"/>
      <point x="186" y="772" type="line"/>
      <point x="159" y="758" type="line"/>
      <point x="147" y="770" type="line"/>
      <point x="256" y="829" type="line"/>
    </contour>
    <contour>
      <point x="819" y="732" type="line"/>
      <point x="808" y="721" type="line"/>
      <point x="714" y="750" type="line"/>
      <point x="776" y="689" type="line"/>
      <point x="764" y="677" type="line"/>
      <point x="680" y="761" type="line"/>
      <point x="692" y="773" type="line"/>
      <point x="782" y="746" type="line"/>
      <point x="723" y="804" type="line"/>
      <point x="735" y="816" type="line"/>
    </contour>
    <contour>
      <point x="350" y="736" type="line"/>
      <point x="266" y="652" type="line"/>
      <point x="253" y="664" type="line"/>
      <point x="338" y="748" type="line"/>
    </contour>
    <contour>
      <point x="700" y="613" type="line"/>
      <point x="688" y="601" type="line"/>
      <point x="604" y="685" type="line"/>
      <point x="616" y="697" type="line"/>
    </contour>
    <contour>
      <point x="423" y="662" type="line"/>
      <point x="351" y="590" type="line"/>
      <point x="385" y="556" type="line"/>
      <point x="373" y="544" type="line"/>
      <point x="326" y="591" type="line"/>
      <point x="410" y="675" type="line"/>
    </contour>
    <contour>
      <point x="607" y="568" type="curve" smooth="yes"/>
      <point x="621" y="554"/>
      <point x="623" y="536"/>
      <point x="604" y="517" type="curve" smooth="yes"/>
      <point x="593" y="506"/>
      <point x="579" y="503"/>
      <point x="565" y="505" type="curve"/>
      <point x="566" y="522" type="line"/>
      <point x="577" y="520"/>
      <point x="586" y="524"/>
      <point x="593" y="530" type="curve" smooth="yes"/>
      <point x="602" y="539"/>
      <point x="603" y="548"/>
      <point x="596" y="556" type="curve"/>
      <point x="589" y="562"/>
      <point x="582" y="561"/>
      <point x="563" y="554" type="curve" smooth="yes"/>
      <point x="543" y="547"/>
      <point x="531" y="543"/>
      <point x="516" y="558" type="curve" smooth="yes"/>
      <point x="502" y="572"/>
      <point x="504" y="590"/>
      <point x="519" y="605" type="curve" smooth="yes"/>
      <point x="529" y="615"/>
      <point x="540" y="619"/>
      <point x="555" y="618" type="curve"/>
      <point x="554" y="600" type="line"/>
      <point x="543" y="601"/>
      <point x="537" y="599"/>
      <point x="531" y="592" type="curve"/>
      <point x="523" y="585"/>
      <point x="524" y="577"/>
      <point x="528" y="572" type="curve"/>
      <point x="535" y="566"/>
      <point x="541" y="565"/>
      <point x="558" y="572" type="curve" smooth="yes"/>
      <point x="577" y="580"/>
      <point x="592" y="583"/>
    </contour>
    <contour>
      <point x="474" y="433" type="curve" smooth="yes"/>
      <point x="488" y="419"/>
      <point x="490" y="401"/>
      <point x="471" y="382" type="curve" smooth="yes"/>
      <point x="460" y="371"/>
      <point x="446" y="368"/>
      <point x="432" y="370" type="curve"/>
      <point x="433" y="387" type="line"/>
      <point x="444" y="385"/>
      <point x="453" y="389"/>
      <point x="460" y="395" type="curve" smooth="yes"/>
      <point x="469" y="404"/>
      <point x="470" y="413"/>
      <point x="463" y="421" type="curve"/>
      <point x="456" y="427"/>
      <point x="449" y="426"/>
      <point x="430" y="419" type="curve" smooth="yes"/>
      <point x="410" y="412"/>
      <point x="398" y="408"/>
      <point x="383" y="423" type="curve" smooth="yes"/>
      <point x="369" y="437"/>
      <point x="371" y="455"/>
      <point x="386" y="470" type="curve" smooth="yes"/>
      <point x="396" y="480"/>
      <point x="407" y="484"/>
      <point x="422" y="483" type="curve"/>
      <point x="421" y="465" type="line"/>
      <point x="410" y="466"/>
      <point x="404" y="464"/>
      <point x="398" y="457" type="curve"/>
      <point x="390" y="450"/>
      <point x="391" y="442"/>
      <point x="395" y="437" type="curve"/>
      <point x="402" y="431"/>
      <point x="408" y="430"/>
      <point x="425" y="437" type="curve" smooth="yes"/>
      <point x="444" y="445"/>
      <point x="459" y="448"/>
    </contour>
    <contour>
      <point x="649" y="388" type="curve" smooth="yes"/>
      <point x="636" y="375"/>
      <point x="622" y="374"/>
      <point x="610" y="380" type="curve"/>
      <point x="588" y="328" type="line"/>
      <point x="574" y="342" type="line"/>
      <point x="595" y="392" type="line"/>
      <point x="580" y="406" type="line"/>
      <point x="546" y="371" type="line"/>
      <point x="533" y="383" type="line"/>
      <point x="617" y="468" type="line"/>
      <point x="648" y="437" type="line" smooth="yes"/>
      <point x="661" y="424"/>
      <point x="666" y="405"/>
    </contour>
    <contour>
      <point x="373" y="282" type="curve" smooth="yes"/>
      <point x="354" y="263"/>
      <point x="324" y="270"/>
      <point x="300" y="295" type="curve" smooth="yes"/>
      <point x="275" y="320"/>
      <point x="267" y="349"/>
      <point x="287" y="369" type="curve" smooth="yes"/>
      <point x="307" y="389"/>
      <point x="336" y="382"/>
      <point x="360" y="357" type="curve" smooth="yes"/>
      <point x="385" y="332"/>
      <point x="393" y="302"/>
    </contour>
    <contour>
      <point x="739" y="347" type="curve" smooth="yes"/>
      <point x="759" y="327"/>
      <point x="752" y="298"/>
      <point x="727" y="274" type="curve" smooth="yes"/>
      <point x="702" y="249"/>
      <point x="672" y="241"/>
      <point x="652" y="261" type="curve" smooth="yes"/>
      <point x="633" y="280"/>
      <point x="640" y="310"/>
      <point x="665" y="334" type="curve" smooth="yes"/>
      <point x="690" y="359"/>
      <point x="719" y="367"/>
    </contour>
    <contour>
      <point x="298" y="212" type="line"/>
      <point x="284" y="198" type="line"/>
      <point x="234" y="219" type="line"/>
      <point x="220" y="204" type="line"/>
      <point x="255" y="170" type="line"/>
      <point x="243" y="157" type="line"/>
      <point x="158" y="241" type="line"/>
      <point x="189" y="272" type="line" smooth="yes"/>
      <point x="202" y="285"/>
      <point x="221" y="290"/>
      <point x="238" y="273" type="curve" smooth="yes"/>
      <point x="251" y="260"/>
      <point x="252" y="246"/>
      <point x="246" y="234" type="curve"/>
    </contour>
    <contour>
      <point x="832" y="254" type="line"/>
      <point x="773" y="144" type="line"/>
      <point x="760" y="157" type="line"/>
      <point x="775" y="184" type="line"/>
      <point x="749" y="210" type="line"/>
      <point x="722" y="195" type="line"/>
      <point x="710" y="208" type="line"/>
      <point x="819" y="267" type="line"/>
    </contour>
    <contour>
      <point x="905" y="179" type="line" smooth="yes"/>
      <point x="925" y="159"/>
      <point x="924" y="131"/>
      <point x="897" y="104" type="curve" smooth="yes"/>
      <point x="869" y="76"/>
      <point x="841" y="75"/>
      <point x="821" y="95" type="curve" smooth="yes"/>
      <point x="799" y="117" type="line"/>
      <point x="883" y="201" type="line"/>
    </contour>
    <contour>
      <point x="189" y="138" type="line"/>
      <point x="196" y="122"/>
      <point x="196" y="107"/>
      <point x="182" y="93" type="curve" smooth="yes"/>
      <point x="162" y="73"/>
      <point x="134" y="82"/>
      <point x="109" y="106" type="curve" smooth="yes"/>
      <point x="84" y="131"/>
      <point x="76" y="160"/>
      <point x="96" y="180" type="curve" smooth="yes"/>
      <point x="110" y="194"/>
      <point x="124" y="194"/>
      <point x="139" y="187" type="curve"/>
      <point x="132" y="171" type="line"/>
      <point x="122" y="175"/>
      <point x="115" y="175"/>
      <point x="108" y="168" type="curve" smooth="yes"/>
      <point x="95" y="155"/>
      <point x="104" y="136"/>
      <point x="121" y="119" type="curve" smooth="yes"/>
      <point x="138" y="102"/>
      <point x="158" y="93"/>
      <point x="171" y="106" type="curve" smooth="yes"/>
      <point x="178" y="113"/>
      <point x="178" y="121"/>
      <point x="173" y="132" type="curve"/>
    </contour>
    <contour>
      <point x="167" y="869" type="curve" smooth="yes"/>
      <point x="176" y="878"/>
      <point x="175" y="887"/>
      <point x="167" y="895" type="curve" smooth="yes"/>
      <point x="149" y="913" type="line"/>
      <point x="123" y="887" type="line"/>
      <point x="141" y="869" type="line" smooth="yes"/>
      <point x="149" y="861"/>
      <point x="158" y="860"/>
    </contour>
    <contour>
      <point x="245" y="805" type="line"/>
      <point x="201" y="780" type="line"/>
      <point x="220" y="761" type="line"/>
    </contour>
    <contour>
      <point x="636" y="400" type="curve" smooth="yes"/>
      <point x="645" y="409"/>
      <point x="644" y="418"/>
      <point x="636" y="426" type="curve" smooth="yes"/>
      <point x="618" y="444" type="line"/>
      <point x="592" y="418" type="line"/>
      <point x="610" y="400" type="line" smooth="yes"/>
      <point x="618" y="392"/>
      <point x="627" y="391"/>
    </contour>
    <contour>
      <point x="361" y="295" type="curve" smooth="yes"/>
      <point x="374" y="308"/>
      <point x="366" y="327"/>
      <point x="348" y="344" type="curve" smooth="yes"/>
      <point x="331" y="361"/>
      <point x="312" y="370"/>
      <point x="299" y="357" type="curve" smooth="yes"/>
      <point x="286" y="344"/>
      <point x="295" y="325"/>
      <point x="312" y="308" type="curve" smooth="yes"/>
      <point x="329" y="291"/>
      <point x="348" y="282"/>
    </contour>
    <contour>
      <point x="727" y="335" type="curve" smooth="yes"/>
      <point x="714" y="348"/>
      <point x="695" y="339"/>
      <point x="678" y="322" type="curve" smooth="yes"/>
      <point x="661" y="305"/>
      <point x="652" y="286"/>
      <point x="665" y="273" type="curve" smooth="yes"/>
      <point x="678" y="260"/>
      <point x="697" y="268"/>
      <point x="714" y="286" type="curve" smooth="yes"/>
      <point x="731" y="303"/>
      <point x="740" y="322"/>
    </contour>
    <contour>
      <point x="226" y="234" type="line" smooth="yes"/>
      <point x="234" y="242"/>
      <point x="235" y="251"/>
      <point x="226" y="260" type="curve" smooth="yes"/>
      <point x="217" y="269"/>
      <point x="208" y="268"/>
      <point x="200" y="260" type="curve" smooth="yes"/>
      <point x="182" y="242" type="line"/>
      <point x="208" y="216" type="line"/>
    </contour>
    <contour>
      <point x="808" y="243" type="line"/>
      <point x="764" y="218" type="line"/>
      <point x="783" y="199" type="line"/>
    </contour>
    <contour>
      <point x="893" y="168" type="curve" smooth="yes"/>
      <point x="884" y="177" type="line"/>
      <point x="823" y="117" type="line"/>
      <point x="833" y="107" type="line" smooth="yes"/>
      <point x="848" y="92"/>
      <point x="868" y="100"/>
      <point x="884" y="116" type="curve" smooth="yes"/>
      <point x="900" y="132"/>
      <point x="909" y="152"/>
    </contour>
  </outline>
</glyph>
<glyph name="D" format="1">
  <advance width="1000"/>
  <unicode hex="0044"/>
  <outline>
    <contour>
      <point x="988" y="500" type="curve" smooth="yes"/>
      <point x="988" y="489"/>
      <point x="983" y="479"/>
      <point x="972" y="468" type="curve" smooth="yes"/>
      <point x="532" y="29" type="line" smooth="yes"/>
      <point x="521" y="18"/>
      <point x="511" y="13"/>
      <point x="500" y="13" type="curve" smooth="yes"/>
      <point x="489" y="13"/>
      <point x="478" y="18"/>
      <point x="467" y="29" type="curve" smooth="yes"/>
      <point x="28" y="468" type="line" smooth="yes"/>
      <point x="17" y="479"/>
      <point x="12" y="489"/>
      <point x="12" y="500" type="curve" smooth="yes"/>
      <point x="12" y="511"/>
      <point x="17" y="522"/>
      <point x="28" y="533" type="curve" smooth="yes"/>
      <point x="467" y="972" type="line" smooth="yes"/>
      <point x="478" y="983"/>
      <point x="489" y="988"/>
      <point x="500" y="988" type="curve" smooth="yes"/>
      <point x="511" y="988"/>
      <point x="522" y="983"/>
      <point x="533" y="972" type="curve" smooth="yes"/>
      <point x="972" y="533" type="line" smooth="yes"/>
      <point x="983" y="522"/>
      <point x="988" y="511"/>
    </contour>
    <contour>
      <point x="985" y="500" type="curve" smooth="yes"/>
      <point x="985" y="510"/>
      <point x="980" y="521"/>
      <point x="970" y="531" type="curve" smooth="yes"/>
      <point x="531" y="970" type="line" smooth="yes"/>
      <point x="521" y="980"/>
      <point x="510" y="985"/>
      <point x="500" y="985" type="curve" smooth="yes"/>
      <point x="490" y="985"/>
      <point x="479" y="980"/>
      <point x="469" y="970" type="curve" smooth="yes"/>
      <point x="30" y="531" type="line" smooth="yes"/>
      <point x="20" y="521"/>
      <point x="15" y="510"/>
      <point x="15" y="500" type="curve" smooth="yes"/>
      <point x="15" y="490"/>
      <point x="20" y="480"/>
      <point x="30" y="470" type="curve" smooth="yes"/>
      <point x="469" y="31" type="line" smooth="yes"/>
      <point x="479" y="21"/>
      <point x="490" y="16"/>
      <point x="500" y="16" type="curve" smooth="yes"/>
      <point x="510" y="16"/>
      <point x="520" y="21"/>
      <point x="530" y="31" type="curve" smooth="yes"/>
      <point x="970" y="470" type="line" smooth="yes"/>
      <point x="980" y="480"/>
      <point x="985" y="490"/>
    </contour>
    <contour>
      <point x="973" y="500" type="curve" smooth="yes"/>
      <point x="973" y="492"/>
      <point x="970" y="485"/>
      <point x="962" y="477" type="curve" smooth="yes"/>
      <point x="523" y="38" type="line" smooth="yes"/>
      <point x="515" y="30"/>
      <point x="508" y="27"/>
      <point x="500" y="27" type="curve" smooth="yes"/>
      <point x="492" y="27"/>
      <point x="485" y="30"/>
      <point x="477" y="38" type="curve" smooth="yes"/>
      <point x="38" y="477" type="line" smooth="yes"/>
      <point x="30" y="485"/>
      <point x="27" y="492"/>
      <point x="27" y="500" type="curve" smooth="yes"/>
      <point x="27" y="508"/>
      <point x="30" y="515"/>
      <point x="38" y="523" type="curve" smooth="yes"/>
      <point x="477" y="962" type="line" smooth="yes"/>
      <point x="485" y="970"/>
      <point x="492" y="973"/>
      <point x="500" y="973" type="curve" smooth="yes"/>
      <point x="508" y="973"/>
      <point x="515" y="970"/>
      <point x="523" y="962" type="curve" smooth="yes"/>
      <point x="962" y="523" type="line" smooth="yes"/>
      <point x="970" y="515"/>
      <point x="973" y="508"/>
    </contour>
    <contour>
      <point x="956" y="500" type="curve" smooth="yes"/>
      <point x="956" y="504"/>
      <point x="954" y="507"/>
      <point x="950" y="511" type="curve" smooth="yes"/>
      <point x="511" y="950" type="line" smooth="yes"/>
      <point x="507" y="954"/>
      <point x="504" y="956"/>
      <point x="500" y="956" type="curve" smooth="yes"/>
      <point x="496" y="956"/>
      <point x="493" y="954"/>
      <point x="489" y="950" type="curve" smooth="yes"/>
      <point x="50" y="511" type="line" smooth="yes"/>
      <point x="46" y="507"/>
      <point x="44" y="504"/>
      <point x="44" y="500" type="curve" smooth="yes"/>
      <point x="44" y="496"/>
      <point x="46" y="493"/>
      <point x="50" y="489" type="curve" smooth="yes"/>
      <point x="489" y="50" type="line" smooth="yes"/>
      <point x="493" y="46"/>
      <point x="496" y="44"/>
      <point x="500" y="44" type="curve" smooth="yes"/>
      <point x="504" y="44"/>
      <point x="507" y="46"/>
      <point x="511" y="50" type="curve" smooth="yes"/>
      <point x="950" y="489" type="line" smooth="yes"/>
      <point x="954" y="493"/>
      <point x="956" y="496"/>
    </contour>
    <contour>
      <point x="674" y="697" type="line"/>
      <point x="646" y="697" type="line"/>
      <point x="646" y="595" type="line"/>
      <point x="628" y="595" type="line"/>
      <point x="628" y="697" type="line"/>
      <point x="600" y="697" type="line"/>
      <point x="600" y="714" type="line"/>
      <point x="674" y="714" type="line"/>
    </contour>
    <contour>
      <point x="579" y="697" type="line"/>
      <point x="530" y="697" type="line"/>
      <point x="530" y="665" type="line"/>
      <point x="560" y="665" type="line"/>
      <point x="560" y="649" type="line"/>
      <point x="530" y="649" type="line"/>
      <point x="530" y="595" type="line"/>
      <point x="512" y="595" type="line"/>
      <point x="512" y="714" type="line"/>
      <point x="579" y="714" type="line"/>
    </contour>
    <contour>
      <point x="488" y="595" type="line"/>
      <point x="419" y="595" type="line"/>
      <point x="419" y="714" type="line"/>
      <point x="485" y="714" type="line"/>
      <point x="485" y="697" type="line"/>
      <point x="436" y="697" type="line"/>
      <point x="436" y="667" type="line"/>
      <point x="466" y="667" type="line"/>
      <point x="466" y="650" type="line"/>
      <point x="436" y="650" type="line"/>
      <point x="436" y="612" type="line"/>
      <point x="488" y="612" type="line"/>
    </contour>
    <contour>
      <point x="394" y="595" type="line"/>
      <point x="328" y="595" type="line"/>
      <point x="328" y="714" type="line"/>
      <point x="346" y="714" type="line"/>
      <point x="346" y="612" type="line"/>
      <point x="394" y="612" type="line"/>
    </contour>
    <contour>
      <point x="691" y="420" type="line"/>
      <point x="622" y="420" type="line"/>
      <point x="622" y="539" type="line"/>
      <point x="688" y="539" type="line"/>
      <point x="688" y="522" type="line"/>
      <point x="639" y="522" type="line"/>
      <point x="639" y="492" type="line"/>
      <point x="669" y="492" type="line"/>
      <point x="669" y="475" type="line"/>
      <point x="639" y="475" type="line"/>
      <point x="639" y="437" type="line"/>
      <point x="691" y="437" type="line"/>
    </contour>
    <contour>
      <point x="592" y="420" type="line"/>
      <point x="577" y="420" type="line"/>
      <point x="531" y="505" type="line"/>
      <point x="531" y="420" type="line"/>
      <point x="514" y="420" type="line"/>
      <point x="514" y="539" type="line"/>
      <point x="531" y="539" type="line"/>
      <point x="575" y="457" type="line"/>
      <point x="575" y="539" type="line"/>
      <point x="592" y="539" type="line"/>
    </contour>
    <contour>
      <point x="491" y="420" type="line"/>
      <point x="473" y="420" type="line"/>
      <point x="464" y="450" type="line"/>
      <point x="428" y="450" type="line"/>
      <point x="419" y="420" type="line"/>
      <point x="401" y="420" type="line"/>
      <point x="437" y="539" type="line"/>
      <point x="455" y="539" type="line"/>
    </contour>
    <contour>
      <point x="379" y="420" type="line"/>
      <point x="313" y="420" type="line"/>
      <point x="313" y="539" type="line"/>
      <point x="331" y="539" type="line"/>
      <point x="331" y="437" type="line"/>
      <point x="379" y="437" type="line"/>
    </contour>
    <contour>
      <point x="690" y="278" type="curve" smooth="yes"/>
      <point x="690" y="258"/>
      <point x="678" y="244"/>
      <point x="652" y="244" type="curve" smooth="yes"/>
      <point x="636" y="244"/>
      <point x="624" y="251"/>
      <point x="615" y="263" type="curve"/>
      <point x="628" y="274" type="line"/>
      <point x="635" y="265"/>
      <point x="644" y="261"/>
      <point x="653" y="261" type="curve" smooth="yes"/>
      <point x="666" y="261"/>
      <point x="673" y="266"/>
      <point x="673" y="277" type="curve" smooth="yes"/>
      <point x="673" y="286"/>
      <point x="667" y="291"/>
      <point x="649" y="299" type="curve" smooth="yes"/>
      <point x="630" y="308"/>
      <point x="619" y="315"/>
      <point x="619" y="335" type="curve" smooth="yes"/>
      <point x="619" y="354"/>
      <point x="633" y="366"/>
      <point x="654" y="366" type="curve" smooth="yes"/>
      <point x="668" y="366"/>
      <point x="679" y="361"/>
      <point x="688" y="350" type="curve"/>
      <point x="675" y="338" type="line"/>
      <point x="668" y="346"/>
      <point x="662" y="349"/>
      <point x="653" y="349" type="curve" smooth="yes"/>
      <point x="642" y="349"/>
      <point x="637" y="343"/>
      <point x="637" y="336" type="curve" smooth="yes"/>
      <point x="637" y="327"/>
      <point x="641" y="322"/>
      <point x="658" y="315" type="curve" smooth="yes"/>
      <point x="677" y="307"/>
      <point x="690" y="299"/>
    </contour>
    <contour>
      <point x="601" y="305" type="curve" smooth="yes"/>
      <point x="601" y="267"/>
      <point x="581" y="246"/>
      <point x="553" y="246" type="curve" smooth="yes"/>
      <point x="522" y="246" type="line"/>
      <point x="522" y="364" type="line"/>
      <point x="553" y="364" type="line" smooth="yes"/>
      <point x="582" y="364"/>
      <point x="601" y="343"/>
    </contour>
    <contour>
      <point x="495" y="246" type="line"/>
      <point x="480" y="246" type="line"/>
      <point x="434" y="331" type="line"/>
      <point x="434" y="246" type="line"/>
      <point x="417" y="246" type="line"/>
      <point x="417" y="365" type="line"/>
      <point x="434" y="365" type="line"/>
      <point x="478" y="283" type="line"/>
      <point x="478" y="365" type="line"/>
      <point x="495" y="365" type="line"/>
    </contour>
    <contour>
      <point x="391" y="246" type="line"/>
      <point x="322" y="246" type="line"/>
      <point x="322" y="365" type="line"/>
      <point x="388" y="365" type="line"/>
      <point x="388" y="348" type="line"/>
      <point x="339" y="348" type="line"/>
      <point x="339" y="318" type="line"/>
      <point x="369" y="318" type="line"/>
      <point x="369" y="301" type="line"/>
      <point x="339" y="301" type="line"/>
      <point x="339" y="263" type="line"/>
      <point x="391" y="263" type="line"/>
    </contour>
    <contour>
      <point x="459" y="466" type="line"/>
      <point x="446" y="516" type="line"/>
      <point x="433" y="466" type="line"/>
    </contour>
    <contour>
      <point x="583" y="305" type="curve" smooth="yes"/>
      <point x="583" y="328"/>
      <point x="575" y="348"/>
      <point x="553" y="348" type="curve" smooth="yes"/>
      <point x="540" y="348" type="line"/>
      <point x="540" y="262" type="line"/>
      <point x="553" y="262" type="line" smooth="yes"/>
      <point x="575" y="262"/>
      <point x="583" y="282"/>
    </contour>
  </outline>
</glyph>
<glyph name="G" format="1">
  <advance width="1000"/>
  <unicode hex="0047"/>
  <outline>
    <contour>
      <point x="988" y="500" type="curve" smooth="yes"/>
      <point x="988" y="489"/>
      <point x="983" y="479"/>
      <point x="972" y="468" type="curve" smooth="yes"/>
      <point x="532" y="29" type="line" smooth="yes"/>
      <point x="521" y="18"/>
      <point x="511" y="13"/>
      <point x="500" y="13" type="curve" smooth="yes"/>
      <point x="489" y="13"/>
      <point x="478" y="18"/>
      <point x="467" y="29" type="curve" smooth="yes"/>
      <point x="28" y="468" type="line" smooth="yes"/>
      <point x="17" y="479"/>
      <point x="12" y="489"/>
      <point x="12" y="500" type="curve" smooth="yes"/>
      <point x="12" y="511"/>
      <point x="17" y="522"/>
      <point x="28" y="533" type="curve" smooth="yes"/>
      <point x="467" y="972" type="line" smooth="yes"/>
      <point x="478" y="983"/>
      <point x="489" y="988"/>
      <point x="500" y="988" type="curve" smooth="yes"/>
      <point x="511" y="988"/>
      <point x="522" y="983"/>
      <point x="533" y="972" type="curve" smooth="yes"/>
      <point x="972" y="533" type="line" smooth="yes"/>
      <point x="983" y="522"/>
      <point x="988" y="511"/>
    </contour>
    <contour>
      <point x="985" y="500" type="curve" smooth="yes"/>
      <point x="985" y="510"/>
      <point x="980" y="521"/>
      <point x="970" y="531" type="curve" smooth="yes"/>
      <point x="531" y="970" type="line" smooth="yes"/>
      <point x="521" y="980"/>
      <point x="510" y="985"/>
      <point x="500" y="985" type="curve" smooth="yes"/>
      <point x="490" y="985"/>
      <point x="479" y="980"/>
      <point x="469" y="970" type="curve" smooth="yes"/>
      <point x="30" y="531" type="line" smooth="yes"/>
      <point x="20" y="521"/>
      <point x="15" y="510"/>
      <point x="15" y="500" type="curve" smooth="yes"/>
      <point x="15" y="490"/>
      <point x="20" y="480"/>
      <point x="30" y="470" type="curve" smooth="yes"/>
      <point x="469" y="31" type="line" smooth="yes"/>
      <point x="479" y="21"/>
      <point x="490" y="16"/>
      <point x="500" y="16" type="curve" smooth="yes"/>
      <point x="510" y="16"/>
      <point x="520" y="21"/>
      <point x="530" y="31" type="curve" smooth="yes"/>
      <point x="970" y="470" type="line" smooth="yes"/>
      <point x="980" y="480"/>
      <point x="985" y="490"/>
    </contour>
    <contour>
      <point x="973" y="500" type="curve" smooth="yes"/>
      <point x="973" y="492"/>
      <point x="970" y="485"/>
      <point x="962" y="477" type="curve" smooth="yes"/>
      <point x="523" y="38" type="line" smooth="yes"/>
      <point x="515" y="30"/>
      <point x="508" y="27"/>
      <point x="500" y="27" type="curve" smooth="yes"/>
      <point x="492" y="27"/>
      <point x="485" y="30"/>
      <point x="477" y="38" type="curve" smooth="yes"/>
      <point x="38" y="477" type="line" smooth="yes"/>
      <point x="30" y="485"/>
      <point x="27" y="492"/>
      <point x="27" y="500" type="curve" smooth="yes"/>
      <point x="27" y="508"/>
      <point x="30" y="515"/>
      <point x="38" y="523" type="curve" smooth="yes"/>
      <point x="477" y="962" type="line" smooth="yes"/>
      <point x="485" y="970"/>
      <point x="492" y="973"/>
      <point x="500" y="973" type="curve" smooth="yes"/>
      <point x="508" y="973"/>
      <point x="515" y="970"/>
      <point x="523" y="962" type="curve" smooth="yes"/>
      <point x="962" y="523" type="line" smooth="yes"/>
      <point x="970" y="515"/>
      <point x="973" y="508"/>
    </contour>
    <contour>
      <point x="956" y="500" type="curve" smooth="yes"/>
      <point x="956" y="504"/>
      <point x="954" y="507"/>
      <point x="950" y="511" type="curve" smooth="yes"/>
      <point x="511" y="950" type="line" smooth="yes"/>
      <point x="507" y="954"/>
      <point x="504" y="956"/>
      <point x="500" y="956" type="curve" smooth="yes"/>
      <point x="496" y="956"/>
      <point x="493" y="954"/>
      <point x="489" y="950" type="curve" smooth="yes"/>
      <point x="50" y="511" type="line" smooth="yes"/>
      <point x="46" y="507"/>
      <point x="44" y="504"/>
      <point x="44" y="500" type="curve" smooth="yes"/>
      <point x="44" y="496"/>
      <point x="46" y="493"/>
      <point x="50" y="489" type="curve" smooth="yes"/>
      <point x="489" y="50" type="line" smooth="yes"/>
      <point x="493" y="46"/>
      <point x="496" y="44"/>
      <point x="500" y="44" type="curve" smooth="yes"/>
      <point x="504" y="44"/>
      <point x="507" y="46"/>
      <point x="511" y="50" type="curve" smooth="yes"/>
      <point x="950" y="489" type="line" smooth="yes"/>
      <point x="954" y="493"/>
      <point x="956" y="496"/>
    </contour>
    <contour>
      <point x="625" y="691" type="curve" smooth="yes"/>
      <point x="625" y="648"/>
      <point x="606" y="616"/>
      <point x="572" y="616" type="curve" smooth="yes"/>
      <point x="537" y="616"/>
      <point x="519" y="647"/>
      <point x="519" y="691" type="curve" smooth="yes"/>
      <point x="519" y="734"/>
      <point x="537" y="767"/>
      <point x="572" y="767" type="curve" smooth="yes"/>
      <point x="607" y="767"/>
      <point x="625" y="735"/>
    </contour>
    <contour>
      <point x="482" y="618" type="line"/>
      <point x="463" y="618" type="line"/>
      <point x="406" y="723" type="line"/>
      <point x="406" y="618" type="line"/>
      <point x="384" y="618" type="line"/>
      <point x="384" y="765" type="line"/>
      <point x="406" y="765" type="line"/>
      <point x="461" y="663" type="line"/>
      <point x="461" y="765" type="line"/>
      <point x="482" y="765" type="line"/>
    </contour>
    <contour>
      <point x="838" y="502" type="line"/>
      <point x="803" y="502" type="line"/>
      <point x="803" y="376" type="line"/>
      <point x="781" y="376" type="line"/>
      <point x="781" y="502" type="line"/>
      <point x="746" y="502" type="line"/>
      <point x="746" y="523" type="line"/>
      <point x="838" y="523" type="line"/>
    </contour>
    <contour>
      <point x="726" y="376" type="line"/>
      <point x="641" y="376" type="line"/>
      <point x="641" y="523" type="line"/>
      <point x="723" y="523" type="line"/>
      <point x="723" y="502" type="line"/>
      <point x="663" y="502" type="line"/>
      <point x="663" y="465" type="line"/>
      <point x="700" y="465" type="line"/>
      <point x="700" y="444" type="line"/>
      <point x="663" y="444" type="line"/>
      <point x="663" y="397" type="line"/>
      <point x="726" y="397" type="line"/>
    </contour>
    <contour>
      <point x="617" y="376" type="line"/>
      <point x="536" y="376" type="line"/>
      <point x="536" y="523" type="line"/>
      <point x="557" y="523" type="line"/>
      <point x="557" y="397" type="line"/>
      <point x="617" y="397" type="line"/>
    </contour>
    <contour>
      <point x="514" y="502" type="line"/>
      <point x="479" y="502" type="line"/>
      <point x="479" y="376" type="line"/>
      <point x="457" y="376" type="line"/>
      <point x="457" y="502" type="line"/>
      <point x="422" y="502" type="line"/>
      <point x="422" y="523" type="line"/>
      <point x="514" y="523" type="line"/>
    </contour>
    <contour>
      <point x="282" y="449" type="curve" smooth="yes"/>
      <point x="282" y="406"/>
      <point x="263" y="374"/>
      <point x="229" y="374" type="curve" smooth="yes"/>
      <point x="194" y="374"/>
      <point x="176" y="405"/>
      <point x="176" y="449" type="curve" smooth="yes"/>
      <point x="176" y="492"/>
      <point x="194" y="525"/>
      <point x="229" y="525" type="curve" smooth="yes"/>
      <point x="264" y="525"/>
      <point x="282" y="493"/>
    </contour>
    <contour>
      <point x="401" y="429" type="line" smooth="yes"/>
      <point x="401" y="395"/>
      <point x="382" y="374"/>
      <point x="352" y="374" type="curve" smooth="yes"/>
      <point x="323" y="374"/>
      <point x="303" y="395"/>
      <point x="303" y="429" type="curve" smooth="yes"/>
      <point x="303" y="523" type="line"/>
      <point x="325" y="523" type="line"/>
      <point x="325" y="429" type="line" smooth="yes"/>
      <point x="325" y="409"/>
      <point x="334" y="396"/>
      <point x="352" y="396" type="curve" smooth="yes"/>
      <point x="371" y="396"/>
      <point x="379" y="410"/>
      <point x="379" y="429" type="curve" smooth="yes"/>
      <point x="379" y="523" type="line"/>
      <point x="401" y="523" type="line"/>
    </contour>
    <contour>
      <point x="604" y="691" type="curve" smooth="yes"/>
      <point x="604" y="721"/>
      <point x="594" y="746"/>
      <point x="572" y="746" type="curve" smooth="yes"/>
      <point x="550" y="746"/>
      <point x="541" y="721"/>
      <point x="541" y="691" type="curve" smooth="yes"/>
      <point x="541" y="661"/>
      <point x="550" y="637"/>
      <point x="572" y="637" type="curve" smooth="yes"/>
      <point x="594" y="637"/>
      <point x="604" y="661"/>
    </contour>
    <contour>
      <point x="261" y="449" type="curve" smooth="yes"/>
      <point x="261" y="479"/>
      <point x="251" y="504"/>
      <point x="229" y="504" type="curve" smooth="yes"/>
      <point x="207" y="504"/>
      <point x="198" y="479"/>
      <point x="198" y="449" type="curve" smooth="yes"/>
      <point x="198" y="419"/>
      <point x="207" y="395"/>
      <point x="229" y="395" type="curve" smooth="yes"/>
      <point x="251" y="395"/>
      <point x="261" y="419"/>
    </contour>
  </outline>
</glyph>
<glyph name="H" format="1">
  <advance width="1000"/>
  <unicode hex="0048"/>
  <outline>
    <contour>
      <point x="988" y="500" type="curve" smooth="yes"/>
      <point x="988" y="489"/>
      <point x="983" y="479"/>
      <point x="972" y="468" type="curve" smooth="yes"/>
      <point x="532" y="29" type="line" smooth="yes"/>
      <point x="521" y="18"/>
      <point x="511" y="13"/>
      <point x="500" y="13" type="curve" smooth="yes"/>
      <point x="489" y="13"/>
      <point x="478" y="18"/>
      <point x="467" y="29" type="curve" smooth="yes"/>
      <point x="28" y="468" type="line" smooth="yes"/>
      <point x="17" y="479"/>
      <point x="12" y="489"/>
      <point x="12" y="500" type="curve" smooth="yes"/>
      <point x="12" y="511"/>
      <point x="17" y="522"/>
      <point x="28" y="533" type="curve" smooth="yes"/>
      <point x="467" y="972" type="line" smooth="yes"/>
      <point x="478" y="983"/>
      <point x="489" y="988"/>
      <point x="500" y="988" type="curve" smooth="yes"/>
      <point x="511" y="988"/>
      <point x="522" y="983"/>
      <point x="533" y="972" type="curve" smooth="yes"/>
      <point x="972" y="533" type="line" smooth="yes"/>
      <point x="983" y="522"/>
      <point x="988" y="511"/>
    </contour>
    <contour>
      <point x="985" y="500" type="curve" smooth="yes"/>
      <point x="985" y="510"/>
      <point x="980" y="521"/>
      <point x="970" y="531" type="curve" smooth="yes"/>
      <point x="531" y="970" type="line" smooth="yes"/>
      <point x="521" y="980"/>
      <point x="510" y="985"/>
      <point x="500" y="985" type="curve" smooth="yes"/>
      <point x="490" y="985"/>
      <point x="479" y="980"/>
      <point x="469" y="970" type="curve" smooth="yes"/>
      <point x="30" y="531" type="line" smooth="yes"/>
      <point x="20" y="521"/>
      <point x="15" y="510"/>
      <point x="15" y="500" type="curve" smooth="yes"/>
      <point x="15" y="490"/>
      <point x="20" y="480"/>
      <point x="30" y="470" type="curve" smooth="yes"/>
      <point x="469" y="31" type="line" smooth="yes"/>
      <point x="479" y="21"/>
      <point x="490" y="16"/>
      <point x="500" y="16" type="curve" smooth="yes"/>
      <point x="510" y="16"/>
      <point x="520" y="21"/>
      <point x="530" y="31" type="curve" smooth="yes"/>
      <point x="970" y="470" type="line" smooth="yes"/>
      <point x="980" y="480"/>
      <point x="985" y="490"/>
    </contour>
    <contour>
      <point x="974" y="500" type="curve" smooth="yes"/>
      <point x="974" y="492"/>
      <point x="971" y="484"/>
      <point x="963" y="476" type="curve" smooth="yes"/>
      <point x="524" y="37" type="line" smooth="yes"/>
      <point x="516" y="29"/>
      <point x="508" y="26"/>
      <point x="500" y="26" type="curve" smooth="yes"/>
      <point x="492" y="26"/>
      <point x="484" y="29"/>
      <point x="476" y="37" type="curve" smooth="yes"/>
      <point x="37" y="476" type="line" smooth="yes"/>
      <point x="29" y="484"/>
      <point x="26" y="492"/>
      <point x="26" y="500" type="curve" smooth="yes"/>
      <point x="26" y="508"/>
      <point x="29" y="516"/>
      <point x="37" y="524" type="curve" smooth="yes"/>
      <point x="476" y="963" type="line" smooth="yes"/>
      <point x="484" y="971"/>
      <point x="492" y="974"/>
      <point x="500" y="974" type="curve" smooth="yes"/>
      <point x="508" y="974"/>
      <point x="516" y="971"/>
      <point x="524" y="963" type="curve" smooth="yes"/>
      <point x="963" y="524" type="line" smooth="yes"/>
      <point x="971" y="516"/>
      <point x="974" y="508"/>
    </contour>
    <contour>
      <point x="958" y="500" type="curve" smooth="yes"/>
      <point x="958" y="504"/>
      <point x="955" y="508"/>
      <point x="951" y="512" type="curve" smooth="yes"/>
      <point x="512" y="951" type="line" smooth="yes"/>
      <point x="508" y="955"/>
      <point x="504" y="958"/>
      <point x="500" y="958" type="curve" smooth="yes"/>
      <point x="496" y="958"/>
      <point x="492" y="955"/>
      <point x="488" y="951" type="curve" smooth="yes"/>
      <point x="49" y="512" type="line" smooth="yes"/>
      <point x="45" y="508"/>
      <point x="42" y="504"/>
      <point x="42" y="500" type="curve" smooth="yes"/>
      <point x="42" y="496"/>
      <point x="45" y="492"/>
      <point x="49" y="488" type="curve" smooth="yes"/>
      <point x="488" y="49" type="line" smooth="yes"/>
      <point x="492" y="45"/>
      <point x="495" y="42"/>
      <point x="500" y="42" type="curve" smooth="yes"/>
      <point x="505" y="42"/>
      <point x="508" y="45"/>
      <point x="512" y="49" type="curve" smooth="yes"/>
      <point x="951" y="488" type="line" smooth="yes"/>
      <point x="955" y="492"/>
      <point x="958" y="496"/>
    </contour>
    <contour>
      <point x="657" y="738" type="curve" smooth="yes"/>
      <point x="651" y="728"/>
      <point x="643" y="726"/>
      <point x="635" y="727" type="curve" smooth="yes"/>
      <point x="561" y="739" type="line"/>
      <point x="561" y="659" type="line"/>
      <point x="439" y="659" type="line"/>
      <point x="439" y="739" type="line"/>
      <point x="365" y="727" type="line" smooth="yes"/>
      <point x="357" y="726"/>
      <point x="349" y="728"/>
      <point x="343" y="738" type="curve" smooth="yes"/>
      <point x="338" y="746"/>
      <point x="340" y="756"/>
      <point x="348" y="764" type="curve" smooth="yes"/>
      <point x="500" y="916" type="line"/>
      <point x="652" y="764" type="line" smooth="yes"/>
      <point x="660" y="756"/>
      <point x="662" y="746"/>
    </contour>
    <contour>
      <point x="833" y="623" type="line"/>
      <point x="826" y="568" type="line"/>
      <point x="815" y="568" type="line"/>
      <point x="808" y="623" type="line"/>
    </contour>
    <contour>
      <point x="795" y="623" type="line"/>
      <point x="788" y="568" type="line"/>
      <point x="777" y="568" type="line"/>
      <point x="770" y="623" type="line"/>
    </contour>
    <contour>
      <point x="500" y="620" type="line"/>
      <point x="493" y="565" type="line"/>
      <point x="482" y="565" type="line"/>
      <point x="475" y="620" type="line"/>
    </contour>
    <contour>
      <point x="235" y="382" type="line"/>
      <point x="199" y="382" type="line"/>
      <point x="199" y="565" type="line"/>
      <point x="157" y="565" type="line"/>
      <point x="157" y="589" type="line"/>
      <point x="181" y="591"/>
      <point x="201" y="599"/>
      <point x="206" y="620" type="curve"/>
      <point x="235" y="620" type="line"/>
    </contour>
    <contour>
      <point x="576" y="483" type="line"/>
      <point x="492" y="483" type="line"/>
      <point x="492" y="517" type="line"/>
      <point x="576" y="517" type="line"/>
    </contour>
    <contour>
      <point x="457" y="463" type="curve" smooth="yes"/>
      <point x="457" y="404"/>
      <point x="418" y="378"/>
      <point x="363" y="378" type="curve" smooth="yes"/>
      <point x="333" y="378"/>
      <point x="306" y="385"/>
      <point x="280" y="402" type="curve"/>
      <point x="298" y="432" type="line"/>
      <point x="318" y="420"/>
      <point x="343" y="413"/>
      <point x="364" y="413" type="curve" smooth="yes"/>
      <point x="401" y="413"/>
      <point x="421" y="431"/>
      <point x="421" y="461" type="curve" smooth="yes"/>
      <point x="421" y="489"/>
      <point x="401" y="503"/>
      <point x="372" y="503" type="curve" smooth="yes"/>
      <point x="353" y="503"/>
      <point x="339" y="497"/>
      <point x="327" y="488" type="curve"/>
      <point x="289" y="503" type="line"/>
      <point x="297" y="620" type="line"/>
      <point x="443" y="620" type="line"/>
      <point x="443" y="585" type="line"/>
      <point x="331" y="585" type="line"/>
      <point x="326" y="526" type="line"/>
      <point x="340" y="534"/>
      <point x="354" y="538"/>
      <point x="375" y="538" type="curve" smooth="yes"/>
      <point x="429" y="538"/>
      <point x="457" y="505"/>
    </contour>
    <contour>
      <point x="784" y="454" type="curve" smooth="yes"/>
      <point x="784" y="402"/>
      <point x="743" y="374"/>
      <point x="691" y="374" type="curve" smooth="yes"/>
      <point x="641" y="374"/>
      <point x="601" y="402"/>
      <point x="601" y="469" type="curve" smooth="yes"/>
      <point x="601" y="531"/>
      <point x="635" y="617"/>
      <point x="749" y="620" type="curve"/>
      <point x="749" y="585" type="line"/>
      <point x="695" y="583"/>
      <point x="660" y="559"/>
      <point x="643" y="511" type="curve"/>
      <point x="658" y="522"/>
      <point x="676" y="528"/>
      <point x="704" y="528" type="curve" smooth="yes"/>
      <point x="747" y="528"/>
      <point x="784" y="504"/>
    </contour>
    <contour>
      <point x="657" y="262" type="curve" smooth="yes"/>
      <point x="662" y="254"/>
      <point x="660" y="244"/>
      <point x="652" y="236" type="curve" smooth="yes"/>
      <point x="500" y="84" type="line"/>
      <point x="348" y="236" type="line" smooth="yes"/>
      <point x="340" y="244"/>
      <point x="338" y="254"/>
      <point x="343" y="262" type="curve" smooth="yes"/>
      <point x="349" y="272"/>
      <point x="357" y="274"/>
      <point x="365" y="273" type="curve" smooth="yes"/>
      <point x="439" y="261" type="line"/>
      <point x="439" y="341" type="line"/>
      <point x="561" y="341" type="line"/>
      <point x="561" y="261" type="line"/>
      <point x="635" y="273" type="line" smooth="yes"/>
      <point x="643" y="274"/>
      <point x="651" y="272"/>
    </contour>
    <contour>
      <point x="748" y="453" type="curve" smooth="yes"/>
      <point x="748" y="480"/>
      <point x="728" y="493"/>
      <point x="694" y="493" type="curve" smooth="yes"/>
      <point x="659" y="493"/>
      <point x="637" y="479"/>
      <point x="637" y="452" type="curve" smooth="yes"/>
      <point x="637" y="429"/>
      <point x="656" y="409"/>
      <point x="692" y="409" type="curve" smooth="yes"/>
      <point x="728" y="409"/>
      <point x="748" y="426"/>
    </contour>
  </outline>
</glyph>
<glyph name="K" format="1">
  <advance width="1000"/>
  <unicode hex="004B"/>
  <outline>
    <contour>
      <point x="988" y="500" type="curve" smooth="yes"/>
      <point x="988" y="489"/>
      <point x="983" y="479"/>
      <point x="972" y="468" type="curve" smooth="yes"/>
      <point x="532" y="29" type="line" smooth="yes"/>
      <point x="521" y="18"/>
      <point x="511" y="13"/>
      <point x="500" y="13" type="curve" smooth="yes"/>
      <point x="489" y="13"/>
      <point x="478" y="18"/>
      <point x="467" y="29" type="curve" smooth="yes"/>
      <point x="28" y="468" type="line" smooth="yes"/>
      <point x="17" y="479"/>
      <point x="12" y="489"/>
      <point x="12" y="500" type="curve" smooth="yes"/>
      <point x="12" y="511"/>
      <point x="17" y="522"/>
      <point x="28" y="533" type="curve" smooth="yes"/>
      <point x="467" y="972" type="line" smooth="yes"/>
      <point x="478" y="983"/>
      <point x="489" y="988"/>
      <point x="500" y="988" type="curve" smooth="yes"/>
      <point x="511" y="988"/>
      <point x="522" y="983"/>
      <point x="533" y="972" type="curve" smooth="yes"/>
      <point x="972" y="533" type="line" smooth="yes"/>
      <point x="983" y="522"/>
      <point x="988" y="511"/>
    </contour>
    <contour>
      <point x="985" y="500" type="curve" smooth="yes"/>
      <point x="985" y="510"/>
      <point x="980" y="521"/>
      <point x="970" y="531" type="curve" smooth="yes"/>
      <point x="531" y="970" type="line" smooth="yes"/>
      <point x="521" y="980"/>
      <point x="510" y="985"/>
      <point x="500" y="985" type="curve" smooth="yes"/>
      <point x="490" y="985"/>
      <point x="479" y="980"/>
      <point x="469" y="970" type="curve" smooth="yes"/>
      <point x="30" y="531" type="line" smooth="yes"/>
      <point x="20" y="521"/>
      <point x="15" y="510"/>
      <point x="15" y="500" type="curve" smooth="yes"/>
      <point x="15" y="490"/>
      <point x="20" y="480"/>
      <point x="30" y="470" type="curve" smooth="yes"/>
      <point x="469" y="31" type="line" smooth="yes"/>
      <point x="479" y="21"/>
      <point x="490" y="16"/>
      <point x="500" y="16" type="curve" smooth="yes"/>
      <point x="510" y="16"/>
      <point x="520" y="21"/>
      <point x="530" y="31" type="curve" smooth="yes"/>
      <point x="970" y="470" type="line" smooth="yes"/>
      <point x="980" y="480"/>
      <point x="985" y="490"/>
    </contour>
    <contour>
      <point x="973" y="500" type="curve" smooth="yes"/>
      <point x="973" y="492"/>
      <point x="970" y="485"/>
      <point x="962" y="477" type="curve" smooth="yes"/>
      <point x="523" y="38" type="line" smooth="yes"/>
      <point x="515" y="30"/>
      <point x="508" y="27"/>
      <point x="500" y="27" type="curve" smooth="yes"/>
      <point x="492" y="27"/>
      <point x="485" y="30"/>
      <point x="477" y="38" type="curve" smooth="yes"/>
      <point x="38" y="477" type="line" smooth="yes"/>
      <point x="30" y="485"/>
      <point x="27" y="492"/>
      <point x="27" y="500" type="curve" smooth="yes"/>
      <point x="27" y="508"/>
      <point x="30" y="515"/>
      <point x="38" y="523" type="curve" smooth="yes"/>
      <point x="477" y="962" type="line" smooth="yes"/>
      <point x="485" y="970"/>
      <point x="492" y="973"/>
      <point x="500" y="973" type="curve" smooth="yes"/>
      <point x="508" y="973"/>
      <point x="515" y="970"/>
      <point x="523" y="962" type="curve" smooth="yes"/>
      <point x="962" y="523" type="line" smooth="yes"/>
      <point x="970" y="515"/>
      <point x="973" y="508"/>
    </contour>
    <contour>
      <point x="956" y="500" type="curve" smooth="yes"/>
      <point x="956" y="504"/>
      <point x="954" y="507"/>
      <point x="950" y="511" type="curve" smooth="yes"/>
      <point x="511" y="950" type="line" smooth="yes"/>
      <point x="507" y="954"/>
      <point x="504" y="956"/>
      <point x="500" y="956" type="curve" smooth="yes"/>
      <point x="496" y="956"/>
      <point x="493" y="954"/>
      <point x="489" y="950" type="curve" smooth="yes"/>
      <point x="50" y="511" type="line" smooth="yes"/>
      <point x="46" y="507"/>
      <point x="44" y="504"/>
      <point x="44" y="500" type="curve" smooth="yes"/>
      <point x="44" y="496"/>
      <point x="46" y="493"/>
      <point x="50" y="489" type="curve" smooth="yes"/>
      <point x="489" y="50" type="line" smooth="yes"/>
      <point x="493" y="46"/>
      <point x="496" y="44"/>
      <point x="500" y="44" type="curve" smooth="yes"/>
      <point x="504" y="44"/>
      <point x="507" y="46"/>
      <point x="511" y="50" type="curve" smooth="yes"/>
      <point x="950" y="489" type="line" smooth="yes"/>
      <point x="954" y="493"/>
      <point x="956" y="496"/>
    </contour>
    <contour>
      <point x="741" y="555" type="line"/>
      <point x="672" y="555" type="line"/>
      <point x="672" y="674" type="line"/>
      <point x="738" y="674" type="line"/>
      <point x="738" y="657" type="line"/>
      <point x="689" y="657" type="line"/>
      <point x="689" y="627" type="line"/>
      <point x="719" y="627" type="line"/>
      <point x="719" y="610" type="line"/>
      <point x="689" y="610" type="line"/>
      <point x="689" y="572" type="line"/>
      <point x="741" y="572" type="line"/>
    </contour>
    <contour>
      <point x="642" y="587" type="curve" smooth="yes"/>
      <point x="642" y="567"/>
      <point x="630" y="553"/>
      <point x="604" y="553" type="curve" smooth="yes"/>
      <point x="588" y="553"/>
      <point x="576" y="560"/>
      <point x="567" y="572" type="curve"/>
      <point x="580" y="583" type="line"/>
      <point x="587" y="574"/>
      <point x="596" y="570"/>
      <point x="605" y="570" type="curve" smooth="yes"/>
      <point x="618" y="570"/>
      <point x="625" y="575"/>
      <point x="625" y="586" type="curve" smooth="yes"/>
      <point x="625" y="595"/>
      <point x="619" y="601"/>
      <point x="601" y="609" type="curve" smooth="yes"/>
      <point x="582" y="618"/>
      <point x="571" y="625"/>
      <point x="571" y="645" type="curve" smooth="yes"/>
      <point x="571" y="664"/>
      <point x="585" y="676"/>
      <point x="606" y="676" type="curve" smooth="yes"/>
      <point x="620" y="676"/>
      <point x="631" y="671"/>
      <point x="640" y="660" type="curve"/>
      <point x="627" y="648" type="line"/>
      <point x="620" y="656"/>
      <point x="614" y="659"/>
      <point x="605" y="659" type="curve" smooth="yes"/>
      <point x="594" y="659"/>
      <point x="589" y="653"/>
      <point x="589" y="646" type="curve" smooth="yes"/>
      <point x="589" y="637"/>
      <point x="593" y="632"/>
      <point x="610" y="625" type="curve" smooth="yes"/>
      <point x="629" y="617"/>
      <point x="642" y="608"/>
    </contour>
    <contour>
      <point x="543" y="615" type="curve" smooth="yes"/>
      <point x="543" y="580"/>
      <point x="528" y="553"/>
      <point x="500" y="553" type="curve" smooth="yes"/>
      <point x="472" y="553"/>
      <point x="457" y="580"/>
      <point x="457" y="615" type="curve" smooth="yes"/>
      <point x="457" y="650"/>
      <point x="472" y="676"/>
      <point x="500" y="676" type="curve" smooth="yes"/>
      <point x="528" y="676"/>
      <point x="543" y="650"/>
    </contour>
    <contour>
      <point x="435" y="615" type="curve" smooth="yes"/>
      <point x="435" y="580"/>
      <point x="420" y="553"/>
      <point x="392" y="553" type="curve" smooth="yes"/>
      <point x="364" y="553"/>
      <point x="349" y="580"/>
      <point x="349" y="615" type="curve" smooth="yes"/>
      <point x="349" y="650"/>
      <point x="364" y="676"/>
      <point x="392" y="676" type="curve" smooth="yes"/>
      <point x="420" y="676"/>
      <point x="435" y="650"/>
    </contour>
    <contour>
      <point x="329" y="555" type="line"/>
      <point x="263" y="555" type="line"/>
      <point x="263" y="674" type="line"/>
      <point x="281" y="674" type="line"/>
      <point x="281" y="572" type="line"/>
      <point x="329" y="572" type="line"/>
    </contour>
    <contour>
      <point x="795" y="363" type="line"/>
      <point x="729" y="363" type="line"/>
      <point x="729" y="482" type="line"/>
      <point x="747" y="482" type="line"/>
      <point x="747" y="380" type="line"/>
      <point x="795" y="380" type="line"/>
    </contour>
    <contour>
      <point x="701" y="363" type="line"/>
      <point x="632" y="363" type="line"/>
      <point x="632" y="482" type="line"/>
      <point x="698" y="482" type="line"/>
      <point x="698" y="465" type="line"/>
      <point x="649" y="465" type="line"/>
      <point x="649" y="435" type="line"/>
      <point x="679" y="435" type="line"/>
      <point x="679" y="418" type="line"/>
      <point x="649" y="418" type="line"/>
      <point x="649" y="380" type="line"/>
      <point x="701" y="380" type="line"/>
    </contour>
    <contour>
      <point x="603" y="482" type="line"/>
      <point x="567" y="363" type="line"/>
      <point x="551" y="363" type="line"/>
      <point x="515" y="482" type="line"/>
      <point x="534" y="482" type="line"/>
      <point x="559" y="391" type="line"/>
      <point x="584" y="482" type="line"/>
    </contour>
    <contour>
      <point x="507" y="363" type="line"/>
      <point x="489" y="363" type="line"/>
      <point x="480" y="393" type="line"/>
      <point x="444" y="393" type="line"/>
      <point x="435" y="363" type="line"/>
      <point x="417" y="363" type="line"/>
      <point x="453" y="482" type="line"/>
      <point x="471" y="482" type="line"/>
    </contour>
    <contour>
      <point x="395" y="447" type="curve" smooth="yes"/>
      <point x="395" y="429"/>
      <point x="386" y="418"/>
      <point x="373" y="414" type="curve"/>
      <point x="394" y="363" type="line"/>
      <point x="374" y="363" type="line"/>
      <point x="354" y="412" type="line"/>
      <point x="334" y="412" type="line"/>
      <point x="334" y="363" type="line"/>
      <point x="316" y="363" type="line"/>
      <point x="316" y="481" type="line"/>
      <point x="359" y="481" type="line" smooth="yes"/>
      <point x="378" y="481"/>
      <point x="395" y="471"/>
    </contour>
    <contour>
      <point x="288" y="403" type="line" smooth="yes"/>
      <point x="288" y="378"/>
      <point x="273" y="361"/>
      <point x="248" y="361" type="curve" smooth="yes"/>
      <point x="220" y="361"/>
      <point x="205" y="387"/>
      <point x="205" y="422" type="curve" smooth="yes"/>
      <point x="205" y="458"/>
      <point x="221" y="483"/>
      <point x="249" y="483" type="curve" smooth="yes"/>
      <point x="268" y="483"/>
      <point x="279" y="473"/>
      <point x="285" y="457" type="curve"/>
      <point x="269" y="450" type="line"/>
      <point x="264" y="461"/>
      <point x="259" y="465"/>
      <point x="248" y="465" type="curve" smooth="yes"/>
      <point x="231" y="465"/>
      <point x="223" y="448"/>
      <point x="223" y="422" type="curve" smooth="yes"/>
      <point x="223" y="399"/>
      <point x="231" y="378"/>
      <point x="249" y="378" type="curve" smooth="yes"/>
      <point x="264" y="378"/>
      <point x="270" y="388"/>
      <point x="270" y="402" type="curve" smooth="yes"/>
      <point x="270" y="407" type="line"/>
      <point x="254" y="407" type="line"/>
      <point x="254" y="424" type="line"/>
      <point x="288" y="424" type="line"/>
    </contour>
    <contour>
      <point x="526" y="615" type="curve" smooth="yes"/>
      <point x="526" y="639"/>
      <point x="518" y="659"/>
      <point x="500" y="659" type="curve" smooth="yes"/>
      <point x="482" y="659"/>
      <point x="475" y="639"/>
      <point x="475" y="615" type="curve" smooth="yes"/>
      <point x="475" y="591"/>
      <point x="482" y="570"/>
      <point x="500" y="570" type="curve" smooth="yes"/>
      <point x="518" y="570"/>
      <point x="526" y="591"/>
    </contour>
    <contour>
      <point x="418" y="615" type="curve" smooth="yes"/>
      <point x="418" y="639"/>
      <point x="410" y="659"/>
      <point x="392" y="659" type="curve" smooth="yes"/>
      <point x="374" y="659"/>
      <point x="367" y="639"/>
      <point x="367" y="615" type="curve" smooth="yes"/>
      <point x="367" y="591"/>
      <point x="374" y="570"/>
      <point x="392" y="570" type="curve" smooth="yes"/>
      <point x="410" y="570"/>
      <point x="418" y="591"/>
    </contour>
    <contour>
      <point x="377" y="447" type="curve" smooth="yes"/>
      <point x="377" y="459"/>
      <point x="370" y="465"/>
      <point x="359" y="465" type="curve" smooth="yes"/>
      <point x="334" y="465" type="line"/>
      <point x="334" y="428" type="line"/>
      <point x="359" y="428" type="line" smooth="yes"/>
      <point x="370" y="428"/>
      <point x="377" y="434"/>
    </contour>
    <contour>
      <point x="475" y="409" type="line"/>
      <point x="462" y="459" type="line"/>
      <point x="449" y="409" type="line"/>
    </contour>
  </outline>
</glyph>
<glyph name="P" format="1">
  <advance width="1000"/>
  <unicode hex="0050"/>
  <outline>
    <contour>
      <point x="873" y="272" type="line" smooth="yes"/>
      <point x="873" y="241"/>
      <point x="854" y="221"/>
      <point x="821" y="221" type="curve" smooth="yes"/>
      <point x="160" y="221" type="line" smooth="yes"/>
      <point x="127" y="221"/>
      <point x="108" y="241"/>
      <point x="108" y="272" type="curve" smooth="yes"/>
      <point x="108" y="738" type="line" smooth="yes"/>
      <point x="108" y="769"/>
      <point x="127" y="789"/>
      <point x="160" y="789" type="curve" smooth="yes"/>
      <point x="821" y="789" type="line" smooth="yes"/>
      <point x="854" y="789"/>
      <point x="873" y="769"/>
      <point x="873" y="738" type="curve" smooth="yes"/>
    </contour>
    <contour>
      <point x="870" y="272" type="curve" smooth="yes"/>
      <point x="870" y="738" type="line" smooth="yes"/>
      <point x="870" y="768"/>
      <point x="852" y="786"/>
      <point x="821" y="786" type="curve" smooth="yes"/>
      <point x="160" y="786" type="line" smooth="yes"/>
      <point x="129" y="786"/>
      <point x="111" y="768"/>
      <point x="111" y="738" type="curve" smooth="yes"/>
      <point x="111" y="272" type="line" smooth="yes"/>
      <point x="111" y="242"/>
      <point x="129" y="224"/>
      <point x="160" y="224" type="curve" smooth="yes"/>
      <point x="821" y="224" type="line" smooth="yes"/>
      <point x="852" y="224"/>
      <point x="870" y="242"/>
    </contour>
    <contour>
      <point x="851" y="272" type="line" smooth="yes"/>
      <point x="851" y="254"/>
      <point x="840" y="243"/>
      <point x="821" y="243" type="curve" smooth="yes"/>
      <point x="160" y="243" type="line" smooth="yes"/>
      <point x="141" y="243"/>
      <point x="130" y="254"/>
      <point x="130" y="272" type="curve" smooth="yes"/>
      <point x="130" y="738" type="line" smooth="yes"/>
      <point x="130" y="756"/>
      <point x="141" y="767"/>
      <point x="160" y="767" type="curve" smooth="yes"/>
      <point x="821" y="767" type="line" smooth="yes"/>
      <point x="840" y="767"/>
      <point x="851" y="756"/>
      <point x="851" y="738" type="curve" smooth="yes"/>
    </contour>
    <contour>
      <point x="831" y="272" type="curve" smooth="yes"/>
      <point x="831" y="738" type="line" smooth="yes"/>
      <point x="831" y="744"/>
      <point x="827" y="747"/>
      <point x="821" y="747" type="curve" smooth="yes"/>
      <point x="160" y="747" type="line" smooth="yes"/>
      <point x="154" y="747"/>
      <point x="150" y="744"/>
      <point x="150" y="738" type="curve" smooth="yes"/>
      <point x="150" y="272" type="line" smooth="yes"/>
      <point x="150" y="266"/>
      <point x="154" y="263"/>
      <point x="160" y="263" type="curve" smooth="yes"/>
      <point x="821" y="263" type="line" smooth="yes"/>
      <point x="827" y="263"/>
      <point x="831" y="266"/>
    </contour>
    <contour>
      <point x="573" y="620" type="curve" smooth="yes"/>
      <point x="573" y="576"/>
      <point x="559" y="541"/>
      <point x="527" y="541" type="curve" smooth="yes"/>
      <point x="494" y="541"/>
      <point x="482" y="575"/>
      <point x="482" y="620" type="curve" smooth="yes"/>
      <point x="482" y="664"/>
      <point x="494" y="699"/>
      <point x="527" y="699" type="curve" smooth="yes"/>
      <point x="560" y="699"/>
      <point x="573" y="665"/>
    </contour>
    <contour>
      <point x="448" y="619" type="curve" smooth="yes"/>
      <point x="448" y="575"/>
      <point x="434" y="540"/>
      <point x="402" y="540" type="curve" smooth="yes"/>
      <point x="369" y="540"/>
      <point x="357" y="574"/>
      <point x="357" y="619" type="curve" smooth="yes"/>
      <point x="357" y="663"/>
      <point x="369" y="698"/>
      <point x="402" y="698" type="curve" smooth="yes"/>
      <point x="435" y="698"/>
      <point x="448" y="664"/>
    </contour>
    <contour>
      <point x="320" y="542" type="line"/>
      <point x="298" y="542" type="line"/>
      <point x="298" y="663" type="line"/>
      <point x="278" y="663" type="line"/>
      <point x="278" y="678" type="line"/>
      <point x="292" y="680"/>
      <point x="299" y="684"/>
      <point x="302" y="696" type="curve"/>
      <point x="320" y="696" type="line"/>
    </contour>
    <contour>
      <point x="699" y="618" type="curve" smooth="yes"/>
      <point x="699" y="574"/>
      <point x="685" y="539"/>
      <point x="653" y="539" type="curve" smooth="yes"/>
      <point x="620" y="539"/>
      <point x="608" y="573"/>
      <point x="608" y="618" type="curve" smooth="yes"/>
      <point x="608" y="662"/>
      <point x="620" y="697"/>
      <point x="653" y="697" type="curve" smooth="yes"/>
      <point x="686" y="697"/>
      <point x="699" y="663"/>
    </contour>
    <contour>
      <point x="724" y="454" type="line"/>
      <point x="696" y="454" type="line"/>
      <point x="696" y="321" type="line"/>
      <point x="674" y="321" type="line"/>
      <point x="674" y="454" type="line"/>
      <point x="646" y="454" type="line"/>
      <point x="646" y="475" type="line"/>
      <point x="724" y="475" type="line"/>
    </contour>
    <contour>
      <point x="610" y="321" type="line"/>
      <point x="521" y="321" type="line"/>
      <point x="521" y="475" type="line"/>
      <point x="607" y="475" type="line"/>
      <point x="607" y="454" type="line"/>
      <point x="544" y="454" type="line"/>
      <point x="544" y="414" type="line"/>
      <point x="583" y="414" type="line"/>
      <point x="583" y="393" type="line"/>
      <point x="544" y="393" type="line"/>
      <point x="544" y="343" type="line"/>
      <point x="610" y="343" type="line"/>
    </contour>
    <contour>
      <point x="475" y="321" type="line"/>
      <point x="386" y="321" type="line"/>
      <point x="386" y="475" type="line"/>
      <point x="472" y="475" type="line"/>
      <point x="472" y="454" type="line"/>
      <point x="409" y="454" type="line"/>
      <point x="409" y="414" type="line"/>
      <point x="448" y="414" type="line"/>
      <point x="448" y="393" type="line"/>
      <point x="409" y="393" type="line"/>
      <point x="409" y="343" type="line"/>
      <point x="475" y="343" type="line"/>
    </contour>
    <contour>
      <point x="348" y="453" type="line"/>
      <point x="284" y="453" type="line"/>
      <point x="284" y="412" type="line"/>
      <point x="323" y="412" type="line"/>
      <point x="323" y="390" type="line"/>
      <point x="284" y="390" type="line"/>
      <point x="284" y="321" type="line"/>
      <point x="262" y="321" type="line"/>
      <point x="262" y="475" type="line"/>
      <point x="348" y="475" type="line"/>
    </contour>
    <contour>
      <point x="551" y="620" type="curve" smooth="yes"/>
      <point x="551" y="650"/>
      <point x="545" y="678"/>
      <point x="527" y="678" type="curve" smooth="yes"/>
      <point x="508" y="678"/>
      <point x="503" y="650"/>
      <point x="503" y="620" type="curve" smooth="yes"/>
      <point x="503" y="590"/>
      <point x="509" y="562"/>
      <point x="527" y="562" type="curve" smooth="yes"/>
      <point x="546" y="562"/>
      <point x="551" y="590"/>
    </contour>
    <contour>
      <point x="426" y="619" type="curve" smooth="yes"/>
      <point x="426" y="649"/>
      <point x="420" y="677"/>
      <point x="402" y="677" type="curve" smooth="yes"/>
      <point x="383" y="677"/>
      <point x="378" y="649"/>
      <point x="378" y="619" type="curve" smooth="yes"/>
      <point x="378" y="589"/>
      <point x="384" y="561"/>
      <point x="402" y="561" type="curve" smooth="yes"/>
      <point x="421" y="561"/>
      <point x="426" y="589"/>
    </contour>
    <contour>
      <point x="677" y="618" type="curve" smooth="yes"/>
      <point x="677" y="648"/>
      <point x="671" y="676"/>
      <point x="653" y="676" type="curve" smooth="yes"/>
      <point x="634" y="676"/>
      <point x="629" y="648"/>
      <point x="629" y="618" type="curve" smooth="yes"/>
      <point x="629" y="588"/>
      <point x="635" y="560"/>
      <point x="653" y="560" type="curve" smooth="yes"/>
      <point x="672" y="560"/>
      <point x="677" y="588"/>
    </contour>
  </outline>
</glyph>
<glyph name="R" format="1">
  <advance width="1000"/>
  <unicode hex="0052"/>
  <outline>
    <contour>
      <point x="988" y="500" type="curve" smooth="yes"/>
      <point x="988" y="489"/>
      <point x="983" y="479"/>
      <point x="972" y="468" type="curve" smooth="yes"/>
      <point x="532" y="29" type="line" smooth="yes"/>
      <point x="521" y="18"/>
      <point x="511" y="13"/>
      <point x="500" y="13" type="curve" smooth="yes"/>
      <point x="489" y="13"/>
      <point x="478" y="18"/>
      <point x="467" y="29" type="curve" smooth="yes"/>
      <point x="28" y="468" type="line" smooth="yes"/>
      <point x="17" y="479"/>
      <point x="12" y="489"/>
      <point x="12" y="500" type="curve" smooth="yes"/>
      <point x="12" y="511"/>
      <point x="17" y="522"/>
      <point x="28" y="533" type="curve" smooth="yes"/>
      <point x="467" y="972" type="line" smooth="yes"/>
      <point x="478" y="983"/>
      <point x="489" y="988"/>
      <point x="500" y="988" type="curve" smooth="yes"/>
      <point x="511" y="988"/>
      <point x="522" y="983"/>
      <point x="533" y="972" type="curve" smooth="yes"/>
      <point x="972" y="533" type="line" smooth="yes"/>
      <point x="983" y="522"/>
      <point x="988" y="511"/>
    </contour>
    <contour>
      <point x="985" y="500" type="curve" smooth="yes"/>
      <point x="985" y="510"/>
      <point x="980" y="521"/>
      <point x="970" y="531" type="curve" smooth="yes"/>
      <point x="531" y="970" type="line" smooth="yes"/>
      <point x="521" y="980"/>
      <point x="510" y="985"/>
      <point x="500" y="985" type="curve" smooth="yes"/>
      <point x="490" y="985"/>
      <point x="479" y="980"/>
      <point x="469" y="970" type="curve" smooth="yes"/>
      <point x="30" y="531" type="line" smooth="yes"/>
      <point x="20" y="521"/>
      <point x="15" y="510"/>
      <point x="15" y="500" type="curve" smooth="yes"/>
      <point x="15" y="490"/>
      <point x="20" y="480"/>
      <point x="30" y="470" type="curve" smooth="yes"/>
      <point x="469" y="31" type="line" smooth="yes"/>
      <point x="479" y="21"/>
      <point x="490" y="16"/>
      <point x="500" y="16" type="curve" smooth="yes"/>
      <point x="510" y="16"/>
      <point x="520" y="21"/>
      <point x="530" y="31" type="curve" smooth="yes"/>
      <point x="970" y="470" type="line" smooth="yes"/>
      <point x="980" y="480"/>
      <point x="985" y="490"/>
    </contour>
    <contour>
      <point x="973" y="500" type="curve" smooth="yes"/>
      <point x="973" y="492"/>
      <point x="970" y="485"/>
      <point x="962" y="477" type="curve" smooth="yes"/>
      <point x="523" y="38" type="line" smooth="yes"/>
      <point x="515" y="30"/>
      <point x="508" y="27"/>
      <point x="500" y="27" type="curve" smooth="yes"/>
      <point x="492" y="27"/>
      <point x="485" y="30"/>
      <point x="477" y="38" type="curve" smooth="yes"/>
      <point x="38" y="477" type="line" smooth="yes"/>
      <point x="30" y="485"/>
      <point x="27" y="492"/>
      <point x="27" y="500" type="curve" smooth="yes"/>
      <point x="27" y="508"/>
      <point x="30" y="515"/>
      <point x="38" y="523" type="curve" smooth="yes"/>
      <point x="477" y="962" type="line" smooth="yes"/>
      <point x="485" y="970"/>
      <point x="492" y="973"/>
      <point x="500" y="973" type="curve" smooth="yes"/>
      <point x="508" y="973"/>
      <point x="515" y="970"/>
      <point x="523" y="962" type="curve" smooth="yes"/>
      <point x="962" y="523" type="line" smooth="yes"/>
      <point x="970" y="515"/>
      <point x="973" y="508"/>
    </contour>
    <contour>
      <point x="956" y="500" type="curve" smooth="yes"/>
      <point x="956" y="504"/>
      <point x="954" y="507"/>
      <point x="950" y="511" type="curve" smooth="yes"/>
      <point x="511" y="950" type="line" smooth="yes"/>
      <point x="507" y="954"/>
      <point x="504" y="956"/>
      <point x="500" y="956" type="curve" smooth="yes"/>
      <point x="496" y="956"/>
      <point x="493" y="954"/>
      <point x="489" y="950" type="curve" smooth="yes"/>
      <point x="50" y="511" type="line" smooth="yes"/>
      <point x="46" y="507"/>
      <point x="44" y="504"/>
      <point x="44" y="500" type="curve" smooth="yes"/>
      <point x="44" y="496"/>
      <point x="46" y="493"/>
      <point x="50" y="489" type="curve" smooth="yes"/>
      <point x="489" y="50" type="line" smooth="yes"/>
      <point x="493" y="46"/>
      <point x="496" y="44"/>
      <point x="500" y="44" type="curve" smooth="yes"/>
      <point x="504" y="44"/>
      <point x="507" y="46"/>
      <point x="511" y="50" type="curve" smooth="yes"/>
      <point x="950" y="489" type="line" smooth="yes"/>
      <point x="954" y="493"/>
      <point x="956" y="496"/>
    </contour>
    <contour>
      <point x="777" y="404" type="line"/>
      <point x="672" y="404" type="line"/>
      <point x="678" y="397"/>
      <point x="681" y="388"/>
      <point x="681" y="379" type="curve" smooth="yes"/>
      <point x="681" y="357"/>
      <point x="663" y="339"/>
      <point x="641" y="339" type="curve" smooth="yes"/>
      <point x="619" y="339"/>
      <point x="601" y="357"/>
      <point x="601" y="379" type="curve" smooth="yes"/>
      <point x="601" y="388"/>
      <point x="604" y="397"/>
      <point x="609" y="404" type="curve"/>
      <point x="451" y="404" type="line"/>
      <point x="435" y="388" type="line"/>
      <point x="333" y="388" type="line"/>
      <point x="334" y="385"/>
      <point x="334" y="383"/>
      <point x="334" y="380" type="curve" smooth="yes"/>
      <point x="334" y="357"/>
      <point x="316" y="339"/>
      <point x="293" y="339" type="curve" smooth="yes"/>
      <point x="270" y="339"/>
      <point x="252" y="357"/>
      <point x="252" y="380" type="curve" smooth="yes"/>
      <point x="252" y="383"/>
      <point x="252" y="385"/>
      <point x="253" y="388" type="curve"/>
      <point x="226" y="388" type="line"/>
      <point x="226" y="415" type="line"/>
      <point x="234" y="415" type="line"/>
      <point x="234" y="488" type="line"/>
      <point x="328" y="488" type="line"/>
      <point x="361" y="534" type="line"/>
      <point x="429" y="534" type="line"/>
      <point x="429" y="601" type="line"/>
      <point x="777" y="601" type="line"/>
    </contour>
  </outline>
</glyph>
